<svg xmlns="http://www.w3.org/2000/svg" xmlns:xlink="http://www.w3.org/1999/xlink" width="500" zoomAndPan="magnify" viewBox="0 0 375 374.999991" height="500" preserveAspectRatio="xMidYMid meet" version="1.0"><defs><g/><clipPath id="9c27ac70d5"><path d="M 94.226562 100.402344 L 280.976562 100.402344 L 280.976562 227.152344 L 94.226562 227.152344 Z M 94.226562 100.402344 " clip-rule="nonzero"/></clipPath></defs><path fill="#6d6e71" d="M 146.128906 201.625 L 148.476562 201.316406 C 147.40625 199.835938 146.472656 198.273438 145.675781 196.628906 C 142.480469 197.769531 138.496094 199.785156 136.480469 203.097656 C 132.84375 209.097656 135.949219 216.617188 135.980469 216.691406 C 136 216.738281 136.015625 216.785156 136.027344 216.832031 L 153.636719 216.832031 L 171.171875 213.578125 C 171.617188 213.507812 172.050781 213.394531 172.472656 213.238281 C 172.894531 213.082031 173.300781 212.886719 173.683594 212.652344 C 174.066406 212.417969 174.425781 212.144531 174.757812 211.839844 C 175.089844 211.535156 175.386719 211.199219 175.652344 210.835938 C 175.917969 210.472656 176.144531 210.085938 176.332031 209.675781 C 176.519531 209.269531 176.667969 208.84375 176.773438 208.40625 C 176.878906 207.96875 176.941406 207.527344 176.957031 207.078125 C 176.976562 206.628906 176.949219 206.179688 176.878906 205.734375 C 176.808594 205.292969 176.695312 204.859375 176.539062 204.4375 C 176.382812 204.011719 176.1875 203.609375 175.953125 203.226562 C 175.71875 202.84375 175.445312 202.484375 175.140625 202.15625 C 174.835938 201.824219 174.5 201.527344 174.132812 201.261719 C 173.769531 201 173.382812 200.773438 172.972656 200.582031 C 172.5625 200.394531 172.140625 200.246094 171.703125 200.144531 C 171.261719 200.039062 170.820312 199.976562 170.367188 199.957031 C 169.917969 199.941406 169.46875 199.96875 169.023438 200.039062 L 146.335938 203.003906 C 146.148438 203.015625 145.984375 202.960938 145.839844 202.84375 C 145.699219 202.726562 145.613281 202.574219 145.589844 202.390625 C 145.566406 202.207031 145.609375 202.039062 145.714844 201.886719 C 145.824219 201.734375 145.96875 201.640625 146.152344 201.605469 Z M 146.128906 201.625 " fill-opacity="1" fill-rule="nonzero"/><path fill="#ed1c24" d="M 199.929688 102.785156 L 160.019531 102.785156 L 149.503906 162.25 L 210.441406 162.25 Z M 199.929688 102.785156 " fill-opacity="1" fill-rule="nonzero"/><path fill="#d30f1e" d="M 150.832031 156.253906 L 149.84375 161.84375 L 210.78125 161.84375 L 200.269531 102.398438 L 198.191406 102.398438 L 206.246094 157.175781 C 206.246094 157.175781 169.605469 155.972656 150.832031 156.253906 Z M 150.832031 156.253906 " fill-opacity="1" fill-rule="nonzero"/><path fill="#ffffff" d="M 146.710938 195.53125 C 147.582031 197.417969 148.644531 199.191406 149.890625 200.855469 C 149.949219 200.929688 149.988281 201.011719 150.011719 201.101562 L 163.160156 199.382812 C 163.128906 199.324219 163.089844 199.273438 163.0625 199.214844 C 161.503906 196.078125 162.074219 192.265625 164.414062 190.15625 C 166.4375 188.328125 169.292969 188.03125 171.550781 187.976562 L 172.769531 187.976562 C 174.761719 187.960938 176.640625 187.945312 178.359375 187.277344 C 180.261719 186.542969 181.976562 184.617188 181.566406 182.644531 C 181.503906 182.320312 181.617188 182.074219 181.902344 181.90625 C 182.1875 181.738281 182.457031 181.761719 182.710938 181.972656 C 182.964844 181.761719 183.234375 181.738281 183.519531 181.90625 C 183.804688 182.074219 183.914062 182.320312 183.855469 182.644531 C 183.445312 184.613281 185.164062 186.542969 187.0625 187.277344 C 188.78125 187.945312 190.660156 187.960938 192.648438 187.976562 L 193.871094 187.976562 C 196.128906 188.03125 198.984375 188.328125 201.007812 190.15625 C 203.347656 192.265625 203.917969 196.078125 202.355469 199.210938 C 201.074219 201.800781 198.519531 203.867188 195.171875 205.023438 C 192.253906 206.03125 189.175781 206.261719 186.199219 206.480469 L 179.214844 206.480469 L 178.191406 206.402344 C 178.167969 206.421875 178.144531 206.441406 178.117188 206.457031 C 178.140625 206.953125 178.121094 207.445312 178.058594 207.933594 C 177.996094 208.425781 177.886719 208.90625 177.738281 209.375 C 177.585938 209.847656 177.398438 210.300781 177.164062 210.738281 C 176.933594 211.175781 176.664062 211.589844 176.359375 211.976562 C 176.054688 212.367188 175.714844 212.726562 175.347656 213.054688 C 174.976562 213.382812 174.582031 213.675781 174.15625 213.933594 C 173.734375 214.191406 173.292969 214.410156 172.832031 214.589844 C 172.371094 214.769531 171.894531 214.90625 171.410156 215 L 161.359375 216.867188 L 185.734375 216.867188 C 193.660156 216.800781 201.386719 215.34375 208.074219 212.601562 C 208.253906 212.535156 208.429688 212.542969 208.605469 212.617188 C 208.78125 212.695312 208.902344 212.820312 208.976562 212.996094 C 209.046875 213.175781 209.050781 213.351562 208.980469 213.527344 C 208.90625 213.703125 208.785156 213.832031 208.613281 213.910156 C 205.457031 215.1875 202.210938 216.171875 198.878906 216.867188 L 255.878906 216.867188 C 256.183594 216.421875 256.433594 215.949219 256.625 215.449219 C 256.820312 214.945312 256.953125 214.429688 257.027344 213.894531 C 257.097656 213.363281 257.109375 212.828125 257.054688 212.292969 C 257.003906 211.757812 256.890625 211.234375 256.714844 210.726562 C 256.539062 210.21875 256.308594 209.738281 256.019531 209.28125 C 255.730469 208.828125 255.394531 208.414062 255.007812 208.035156 C 254.621094 207.660156 254.199219 207.335938 253.738281 207.058594 C 253.273438 206.78125 252.785156 206.5625 252.273438 206.398438 L 228.070312 198.703125 C 227.976562 198.675781 227.894531 198.628906 227.824219 198.5625 C 226 201.488281 223.785156 204.082031 221.171875 206.335938 C 221.039062 206.453125 220.882812 206.511719 220.707031 206.511719 C 220.382812 206.511719 220.160156 206.359375 220.046875 206.050781 C 219.929688 205.746094 219.996094 205.488281 220.242188 205.273438 C 227.273438 199.144531 230.992188 191.152344 230.992188 182.152344 C 230.984375 178.828125 230.535156 175.5625 229.648438 172.355469 C 228.761719 169.152344 227.464844 166.121094 225.757812 163.261719 L 149.105469 163.261719 C 147.402344 166.121094 146.105469 169.148438 145.21875 172.355469 C 144.328125 175.558594 143.882812 178.820312 143.875 182.148438 C 143.824219 186.769531 144.746094 191.1875 146.636719 195.40625 C 146.664062 195.445312 146.691406 195.488281 146.710938 195.53125 Z M 149.300781 169.855469 C 149.300781 169.660156 149.371094 169.496094 149.507812 169.359375 C 149.644531 169.21875 149.8125 169.152344 150.007812 169.152344 L 214.570312 169.152344 C 214.769531 169.152344 214.933594 169.21875 215.074219 169.355469 C 215.210938 169.496094 215.28125 169.660156 215.28125 169.855469 L 215.28125 178.453125 C 215.28125 178.867188 215.238281 179.28125 215.15625 179.6875 C 215.078125 180.09375 214.957031 180.488281 214.796875 180.875 C 214.636719 181.257812 214.441406 181.621094 214.210938 181.964844 C 213.980469 182.3125 213.71875 182.632812 213.421875 182.925781 C 213.128906 183.21875 212.808594 183.480469 212.460938 183.710938 C 212.117188 183.945312 211.75 184.136719 211.367188 184.296875 C 210.984375 184.457031 210.585938 184.578125 210.179688 184.660156 C 209.769531 184.742188 209.359375 184.78125 208.941406 184.78125 L 194.941406 184.78125 C 194.523438 184.78125 194.113281 184.742188 193.703125 184.660156 C 193.296875 184.578125 192.898438 184.457031 192.515625 184.296875 C 192.132812 184.136719 191.765625 183.945312 191.421875 183.710938 C 191.074219 183.480469 190.753906 183.21875 190.460938 182.925781 C 190.167969 182.632812 189.902344 182.3125 189.671875 181.964844 C 189.441406 181.621094 189.246094 181.257812 189.085938 180.875 C 188.925781 180.488281 188.808594 180.09375 188.726562 179.6875 C 188.644531 179.28125 188.601562 178.867188 188.601562 178.453125 L 188.601562 175.789062 L 176.070312 175.789062 L 176.070312 178.453125 C 176.070312 178.867188 176.03125 179.28125 175.949219 179.6875 C 175.867188 180.097656 175.746094 180.492188 175.585938 180.878906 C 175.425781 181.261719 175.230469 181.628906 175 181.972656 C 174.769531 182.320312 174.503906 182.640625 174.210938 182.933594 C 173.914062 183.230469 173.59375 183.492188 173.25 183.722656 C 172.902344 183.953125 172.535156 184.148438 172.152344 184.308594 C 171.765625 184.46875 171.371094 184.589844 170.960938 184.671875 C 170.550781 184.753906 170.136719 184.792969 169.722656 184.792969 L 155.652344 184.792969 C 155.234375 184.792969 154.820312 184.753906 154.410156 184.671875 C 154.003906 184.589844 153.605469 184.46875 153.222656 184.308594 C 152.835938 184.148438 152.46875 183.953125 152.125 183.722656 C 151.777344 183.492188 151.457031 183.230469 151.160156 182.933594 C 150.867188 182.640625 150.605469 182.320312 150.371094 181.972656 C 150.140625 181.628906 149.945312 181.261719 149.785156 180.878906 C 149.625 180.492188 149.503906 180.097656 149.421875 179.6875 C 149.34375 179.28125 149.300781 178.867188 149.300781 178.453125 Z M 149.300781 169.855469 " fill-opacity="1" fill-rule="nonzero"/><path fill="#e6e7e8" d="M 214.570312 169.152344 C 214.769531 169.152344 214.933594 169.21875 215.074219 169.355469 C 215.210938 169.496094 215.28125 169.660156 215.28125 169.855469 L 215.28125 178.453125 C 215.28125 179.738281 214.921875 180.917969 214.199219 181.984375 C 213.382812 194.957031 206.101562 210.054688 176.988281 211.035156 C 176.390625 212.066406 175.605469 212.929688 174.628906 213.621094 C 173.65625 214.3125 172.582031 214.773438 171.410156 215 L 161.359375 216.867188 L 185.734375 216.867188 C 193.660156 216.800781 201.386719 215.34375 208.074219 212.601562 C 208.253906 212.535156 208.429688 212.542969 208.605469 212.617188 C 208.78125 212.695312 208.902344 212.820312 208.976562 212.996094 C 209.046875 213.175781 209.050781 213.351562 208.980469 213.527344 C 208.90625 213.703125 208.785156 213.832031 208.613281 213.910156 C 205.457031 215.1875 202.210938 216.171875 198.878906 216.867188 L 220.683594 216.867188 L 227.164062 212.234375 C 227.164062 212.234375 229.875 205.765625 232.3125 200.058594 L 228.0625 198.710938 C 227.96875 198.683594 227.886719 198.636719 227.816406 198.570312 C 225.992188 201.496094 223.777344 204.089844 221.164062 206.34375 C 221.03125 206.460938 220.878906 206.519531 220.699219 206.519531 C 220.375 206.519531 220.152344 206.367188 220.039062 206.058594 C 219.925781 205.753906 219.988281 205.496094 220.234375 205.28125 C 227.265625 199.152344 230.984375 191.160156 230.984375 182.160156 C 230.976562 178.835938 230.53125 175.570312 229.644531 172.363281 C 228.757812 169.15625 227.460938 166.121094 225.757812 163.261719 L 211.609375 163.261719 C 212.273438 165.191406 212.800781 167.160156 213.195312 169.160156 Z M 214.570312 169.152344 " fill-opacity="1" fill-rule="nonzero"/><path fill="#ffe6bc" d="M 155.652344 183.367188 L 169.722656 183.367188 C 170.042969 183.367188 170.363281 183.332031 170.679688 183.265625 C 170.996094 183.203125 171.304688 183.109375 171.601562 182.984375 C 171.902344 182.859375 172.183594 182.707031 172.453125 182.527344 C 172.71875 182.347656 172.96875 182.140625 173.195312 181.914062 C 173.425781 181.6875 173.628906 181.4375 173.808594 181.167969 C 173.988281 180.902344 174.140625 180.617188 174.261719 180.320312 C 174.386719 180.023438 174.480469 179.714844 174.542969 179.398438 C 174.609375 179.082031 174.640625 178.765625 174.640625 178.441406 L 174.640625 175.082031 C 174.640625 174.976562 174.664062 174.871094 174.710938 174.777344 C 174.757812 174.679688 174.824219 174.597656 174.90625 174.53125 C 174.992188 174.464844 175.085938 174.417969 175.191406 174.394531 C 175.296875 174.371094 175.402344 174.371094 175.507812 174.398438 C 175.558594 174.386719 175.613281 174.378906 175.667969 174.378906 L 188.742188 174.378906 C 188.839844 174.378906 188.933594 174.398438 189.027344 174.4375 C 189.113281 174.398438 189.207031 174.378906 189.304688 174.378906 C 189.5 174.378906 189.667969 174.445312 189.804688 174.582031 C 189.945312 174.722656 190.011719 174.886719 190.011719 175.082031 L 190.011719 178.453125 C 190.011719 178.777344 190.046875 179.09375 190.109375 179.410156 C 190.171875 179.726562 190.265625 180.035156 190.390625 180.332031 C 190.511719 180.628906 190.664062 180.914062 190.84375 181.183594 C 191.023438 181.449219 191.230469 181.699219 191.457031 181.925781 C 191.6875 182.152344 191.933594 182.359375 192.203125 182.539062 C 192.472656 182.714844 192.753906 182.867188 193.054688 182.992188 C 193.351562 183.117188 193.660156 183.207031 193.976562 183.273438 C 194.292969 183.335938 194.613281 183.367188 194.9375 183.367188 L 208.941406 183.367188 C 209.265625 183.367188 209.585938 183.335938 209.902344 183.273438 C 210.222656 183.210938 210.527344 183.117188 210.828125 182.992188 C 211.125 182.871094 211.410156 182.71875 211.679688 182.539062 C 211.949219 182.359375 212.195312 182.15625 212.425781 181.925781 C 212.652344 181.699219 212.859375 181.449219 213.039062 181.183594 C 213.21875 180.914062 213.371094 180.632812 213.492188 180.332031 C 213.617188 180.035156 213.710938 179.726562 213.773438 179.410156 C 213.839844 179.09375 213.871094 178.777344 213.871094 178.453125 L 213.871094 170.5625 L 150.714844 170.5625 L 150.714844 178.441406 C 150.714844 178.765625 150.75 179.085938 150.8125 179.402344 C 150.878906 179.71875 150.972656 180.027344 151.097656 180.324219 C 151.21875 180.621094 151.371094 180.90625 151.554688 181.175781 C 151.734375 181.441406 151.9375 181.691406 152.167969 181.917969 C 152.394531 182.148438 152.644531 182.351562 152.914062 182.53125 C 153.183594 182.710938 153.464844 182.863281 153.765625 182.988281 C 154.0625 183.113281 154.371094 183.207031 154.6875 183.269531 C 155.007812 183.332031 155.328125 183.367188 155.652344 183.367188 Z M 155.652344 183.367188 " fill-opacity="1" fill-rule="nonzero"/><path fill="#ffe6bc" d="M 258.058594 210.273438 C 258.433594 211.359375 258.578125 212.472656 258.484375 213.617188 C 258.394531 214.761719 258.078125 215.839844 257.53125 216.851562 L 270.957031 216.851562 C 270.917969 216.75 270.910156 216.648438 270.925781 216.542969 C 270.972656 216.007812 270.921875 215.484375 270.769531 214.96875 C 270.617188 214.453125 270.378906 213.984375 270.046875 213.558594 C 269.714844 213.136719 269.320312 212.789062 268.855469 212.515625 C 268.394531 212.242188 267.894531 212.0625 267.367188 211.976562 C 267.148438 211.953125 266.929688 211.945312 266.714844 211.9375 C 266.316406 211.933594 265.925781 211.894531 265.535156 211.820312 C 265.113281 211.753906 264.734375 211.589844 264.402344 211.328125 C 264.066406 211.066406 263.816406 210.738281 263.65625 210.34375 C 263.394531 209.582031 263.65625 208.867188 263.882812 208.289062 C 263.992188 208.03125 264.074219 207.765625 264.125 207.492188 C 264.261719 206.503906 263.199219 205.589844 262.15625 205.429688 C 260.765625 205.261719 259.414062 205.425781 258.109375 205.933594 C 258.003906 205.972656 257.894531 205.988281 257.78125 205.976562 C 257.667969 205.96875 257.566406 205.933594 257.46875 205.871094 C 257.375 205.8125 257.296875 205.730469 257.242188 205.636719 C 257.183594 205.539062 257.152344 205.433594 257.144531 205.320312 C 257.117188 204.921875 257.027344 204.539062 256.871094 204.167969 C 256.714844 203.800781 256.5 203.46875 256.230469 203.175781 C 255.957031 202.878906 255.644531 202.636719 255.292969 202.449219 C 254.9375 202.261719 254.5625 202.136719 254.167969 202.074219 C 253.769531 202.015625 253.375 202.023438 252.980469 202.097656 C 252.585938 202.175781 252.21875 202.3125 251.871094 202.515625 C 251.523438 202.714844 251.222656 202.96875 250.960938 203.273438 C 250.703125 203.582031 250.503906 203.921875 250.359375 204.292969 L 252.691406 205.035156 C 253.953125 205.429688 255.058594 206.089844 256.003906 207.011719 C 256.953125 207.933594 257.636719 209.023438 258.058594 210.273438 Z M 258.058594 210.273438 " fill-opacity="1" fill-rule="nonzero"/><path fill="#d30f1e" d="M 225.3125 161.84375 L 214.796875 102.378906 L 201.707031 102.378906 L 212.21875 161.84375 Z M 225.3125 161.84375 " fill-opacity="1" fill-rule="nonzero"/><path fill="#ffe6bc" d="M 101.335938 216.851562 L 134.511719 216.851562 C 133.871094 215.117188 131.707031 208.25 135.277344 202.394531 C 137.480469 198.757812 141.6875 196.585938 145.089844 195.359375 C 144.238281 193.363281 143.605469 191.304688 143.183594 189.175781 C 142.929688 189.292969 142.6875 189.265625 142.464844 189.097656 C 141.238281 188.152344 139.824219 187.253906 138.632812 187.730469 C 137.660156 188.113281 137.164062 189.320312 136.675781 190.480469 L 136.605469 190.648438 C 135.742188 192.714844 134.574219 193.796875 133.136719 193.871094 C 132.09375 193.925781 131.203125 193.382812 130.414062 192.910156 C 129.625 192.433594 129.007812 192.0625 128.386719 192.203125 C 127.703125 192.355469 127.28125 193.183594 127.242188 193.878906 C 127.179688 194.703125 127.457031 195.539062 127.742188 196.429688 L 127.796875 196.613281 C 128.125 197.628906 128.453125 198.808594 128.214844 199.988281 C 128.121094 200.445312 127.867188 200.785156 127.453125 201.007812 C 126.273438 201.6875 124.296875 201.0625 124.074219 200.988281 C 123.855469 200.917969 123.652344 200.835938 123.4375 200.757812 C 122.675781 200.476562 121.960938 200.207031 121.339844 200.375 C 120.511719 200.601562 120.054688 201.609375 120.039062 202.4375 C 120.019531 203.480469 120.492188 204.558594 120.90625 205.511719 C 120.984375 205.679688 120.988281 205.855469 120.929688 206.03125 C 120.867188 206.203125 120.753906 206.335938 120.585938 206.421875 C 119.316406 207.074219 117.859375 206.390625 116.914062 205.53125 C 116.203125 204.886719 115.464844 204.316406 114.871094 204.519531 C 114.5 204.714844 114.195312 204.988281 113.960938 205.335938 C 113.511719 205.878906 112.996094 206.476562 112.144531 206.636719 C 111.0625 206.816406 110.265625 206.109375 109.628906 205.539062 C 109.191406 205.15625 108.78125 204.777344 108.363281 204.710938 C 108.085938 204.675781 107.839844 204.746094 107.625 204.925781 C 107.1875 205.289062 106.933594 205.75 106.863281 206.3125 C 106.832031 207.097656 106.933594 207.867188 107.164062 208.617188 C 107.246094 208.960938 107.328125 209.304688 107.394531 209.648438 C 107.582031 210.664062 107.707031 212.535156 106.390625 213.65625 C 105.574219 214.355469 104.519531 214.484375 103.511719 214.554688 C 102.730469 214.605469 101.925781 214.664062 101.390625 215.0625 C 101.136719 215.265625 101 215.53125 100.984375 215.855469 C 100.964844 215.996094 101.007812 216.117188 101.113281 216.214844 C 101.300781 216.386719 101.378906 216.597656 101.335938 216.851562 Z M 101.335938 216.851562 " fill-opacity="1" fill-rule="nonzero"/><path fill="#c49a6c" d="M 185.738281 218.265625 L 96.128906 218.265625 L 96.128906 225.183594 L 279.109375 225.183594 L 279.109375 218.265625 Z M 185.738281 218.265625 " fill-opacity="1" fill-rule="nonzero"/><path fill="#ffe6bc" d="M 180.144531 205.023438 L 179.957031 205.082031 L 180.722656 205.082031 C 180.6875 205.058594 180.648438 205.046875 180.613281 205.023438 C 180.457031 204.96875 180.300781 204.96875 180.144531 205.023438 Z M 180.144531 205.023438 " fill-opacity="1" fill-rule="nonzero"/><path fill="#232323" d="M 183.027344 205.082031 L 186.171875 205.082031 C 189.046875 204.867188 192.019531 204.644531 194.761719 203.699219 C 197.753906 202.664062 200.019531 200.855469 201.140625 198.597656 C 202.402344 196.058594 201.957031 192.894531 200.109375 191.210938 C 198.433594 189.691406 195.917969 189.449219 193.886719 189.40625 C 193.503906 189.40625 193.089844 189.40625 192.6875 189.386719 C 190.65625 189.386719 188.5625 189.351562 186.589844 188.589844 C 185.726562 188.261719 184.957031 187.777344 184.289062 187.140625 C 183.621094 186.5 183.105469 185.757812 182.738281 184.910156 C 182.371094 185.757812 181.851562 186.5 181.183594 187.140625 C 180.511719 187.777344 179.746094 188.261719 178.878906 188.589844 C 176.921875 189.351562 174.820312 189.351562 172.78125 189.386719 C 172.402344 189.386719 171.980469 189.386719 171.585938 189.40625 C 169.570312 189.449219 167.039062 189.699219 165.363281 191.214844 C 163.511719 192.882812 163.074219 196.058594 164.328125 198.597656 C 164.433594 198.800781 164.550781 199 164.667969 199.195312 L 168.542969 198.691406 C 167.699219 197.292969 167.300781 194.84375 168.457031 193.609375 C 168.761719 193.292969 169.113281 193.039062 169.511719 192.851562 C 169.910156 192.660156 170.328125 192.546875 170.765625 192.507812 C 171.207031 192.464844 171.636719 192.503906 172.0625 192.617188 C 172.488281 192.734375 172.878906 192.917969 173.238281 193.175781 C 174.109375 193.820312 174.683594 194.835938 174.949219 196.21875 C 176.085938 195.851562 177.246094 195.734375 178.433594 195.863281 C 179.445312 195.996094 180.25 196.476562 180.855469 197.292969 C 181.308594 197.902344 181.464844 198.578125 181.320312 199.320312 C 181.285156 199.472656 181.242188 199.617188 181.191406 199.761719 C 181.132812 199.90625 181.101562 200.050781 181.089844 200.203125 C 181.089844 200.359375 181.355469 200.5625 181.6875 200.695312 C 181.8125 200.746094 181.9375 200.785156 182.070312 200.828125 C 182.523438 200.957031 182.9375 201.160156 183.3125 201.445312 C 183.527344 201.632812 183.703125 201.855469 183.839844 202.109375 C 183.972656 202.363281 184.054688 202.632812 184.089844 202.917969 C 184.121094 203.203125 184.101562 203.484375 184.03125 203.761719 C 183.957031 204.039062 183.839844 204.292969 183.671875 204.527344 C 183.492188 204.753906 183.277344 204.941406 183.027344 205.082031 Z M 183.027344 205.082031 " fill-opacity="1" fill-rule="nonzero"/><path fill="#ffe6bc" d="M 182.535156 203.664062 C 182.65625 203.480469 182.703125 203.285156 182.675781 203.066406 C 182.652344 202.851562 182.558594 202.671875 182.402344 202.519531 C 182.160156 202.347656 181.894531 202.222656 181.609375 202.140625 C 181.460938 202.089844 181.316406 202.042969 181.171875 201.984375 C 180.308594 201.644531 179.769531 201.042969 179.6875 200.339844 C 179.664062 199.980469 179.71875 199.636719 179.847656 199.304688 C 179.882812 199.207031 179.914062 199.109375 179.9375 199.007812 C 179.992188 198.667969 179.917969 198.363281 179.707031 198.09375 C 179.34375 197.609375 178.867188 197.324219 178.265625 197.242188 C 177.015625 197.113281 175.820312 197.304688 174.671875 197.816406 C 174.566406 197.863281 174.457031 197.886719 174.34375 197.878906 C 174.226562 197.875 174.121094 197.84375 174.019531 197.785156 C 173.921875 197.726562 173.839844 197.652344 173.777344 197.554688 C 173.71875 197.457031 173.679688 197.351562 173.671875 197.238281 C 173.582031 196.265625 173.289062 194.957031 172.398438 194.300781 C 172.179688 194.152344 171.941406 194.042969 171.683594 193.976562 C 171.425781 193.910156 171.164062 193.886719 170.898438 193.910156 C 170.636719 193.9375 170.382812 194.003906 170.140625 194.117188 C 169.902344 194.226562 169.6875 194.375 169.496094 194.5625 C 168.839844 195.265625 169.21875 197.386719 169.957031 198.238281 C 170.054688 198.347656 170.109375 198.472656 170.121094 198.617188 C 171.007812 198.648438 171.863281 198.816406 172.695312 199.121094 C 173.523438 199.425781 174.289062 199.851562 174.980469 200.398438 C 175.675781 200.945312 176.269531 201.589844 176.757812 202.324219 C 177.246094 203.058594 177.609375 203.855469 177.84375 204.703125 C 178.421875 204.195312 179.082031 203.84375 179.828125 203.648438 C 180.382812 203.484375 180.902344 203.550781 181.394531 203.851562 C 181.582031 203.964844 181.785156 204 182 203.964844 C 182.214844 203.929688 182.394531 203.828125 182.535156 203.664062 Z M 182.535156 203.664062 " fill-opacity="1" fill-rule="nonzero"/><path fill="#ff7d87" d="M 179.320312 196.085938 C 179.941406 196.339844 180.449219 196.738281 180.84375 197.28125 C 181.300781 197.886719 181.453125 198.5625 181.308594 199.308594 C 181.273438 199.457031 181.230469 199.601562 181.179688 199.75 C 181.121094 199.890625 181.089844 200.039062 181.078125 200.191406 C 181.078125 200.34375 181.347656 200.546875 181.675781 200.679688 C 181.800781 200.730469 181.925781 200.773438 182.058594 200.8125 C 182.511719 200.941406 182.925781 201.144531 183.300781 201.429688 C 183.519531 201.617188 183.691406 201.839844 183.828125 202.09375 C 183.960938 202.347656 184.042969 202.617188 184.078125 202.902344 C 184.109375 203.1875 184.089844 203.46875 184.019531 203.746094 C 183.945312 204.023438 183.828125 204.277344 183.660156 204.511719 C 183.480469 204.746094 183.261719 204.9375 183.003906 205.082031 L 186.148438 205.082031 C 189.027344 204.867188 192 204.644531 194.738281 203.699219 C 197.730469 202.667969 200 200.855469 201.117188 198.597656 C 201.566406 197.695312 201.804688 196.742188 201.828125 195.734375 C 201.855469 194.726562 201.664062 193.761719 201.257812 192.835938 C 198.644531 191.933594 195.953125 191.488281 193.183594 191.5 C 187.601562 191.5 182.585938 193.289062 179.320312 196.085938 Z M 179.320312 196.085938 " fill-opacity="1" fill-rule="nonzero"/><path fill="#ffffff" d="M 168.667969 102.378906 L 158.746094 161.84375 L 149.84375 161.84375 L 160.359375 102.378906 Z M 168.667969 102.378906 " fill-opacity="1" fill-rule="nonzero"/><path fill="#ffffff" d="M 192.296875 102.378906 L 202.210938 161.84375 L 211.117188 161.84375 L 200.601562 102.378906 Z M 192.296875 102.378906 " fill-opacity="1" fill-rule="nonzero"/><path fill="#e6e7e8" d="M 209.074219 102.378906 L 218.988281 161.84375 L 225.066406 161.84375 L 214.550781 102.378906 Z M 209.074219 102.378906 " fill-opacity="1" fill-rule="nonzero"/><path fill="#ffffff" d="M 177.125 102.378906 L 172.539062 161.84375 L 188.089844 161.84375 L 183.5 102.378906 Z M 177.125 102.378906 " fill-opacity="1" fill-rule="nonzero"/><path fill="#6d6e71" d="M 203.664062 166.183594 C 200.796875 166.609375 198.140625 167.601562 195.695312 169.152344 L 214.570312 169.152344 C 214.769531 169.152344 214.933594 169.21875 215.074219 169.355469 C 215.210938 169.496094 215.28125 169.660156 215.28125 169.855469 L 215.28125 178.453125 C 215.28125 178.867188 215.238281 179.28125 215.15625 179.6875 C 215.078125 180.09375 214.957031 180.488281 214.796875 180.875 C 214.636719 181.257812 214.441406 181.621094 214.210938 181.964844 C 213.980469 182.3125 213.71875 182.632812 213.421875 182.925781 C 213.128906 183.21875 212.808594 183.480469 212.460938 183.710938 C 212.117188 183.945312 211.75 184.136719 211.367188 184.296875 C 210.984375 184.457031 210.585938 184.578125 210.179688 184.660156 C 209.769531 184.742188 209.359375 184.78125 208.941406 184.78125 L 194.941406 184.78125 C 193.527344 184.785156 192.253906 184.359375 191.128906 183.503906 C 191.636719 184.402344 192.296875 185.171875 193.105469 185.808594 C 194.949219 187.246094 197.300781 187.777344 199.585938 188.265625 L 211.464844 190.828125 C 213.949219 191.359375 216.546875 191.898438 219.003906 191.257812 C 223.496094 190.089844 226.226562 185.121094 226.019531 180.496094 C 225.847656 176.535156 223.609375 170.519531 220.046875 168.304688 C 215.597656 165.523438 208.675781 165.34375 203.664062 166.183594 Z M 203.664062 166.183594 " fill-opacity="1" fill-rule="nonzero"/><path fill="#58595b" d="M 213.207031 169.152344 L 214.570312 169.152344 C 214.769531 169.152344 214.933594 169.21875 215.074219 169.355469 C 215.210938 169.496094 215.28125 169.660156 215.28125 169.855469 L 215.28125 178.453125 C 215.28125 178.652344 215.28125 178.832031 215.25 179.035156 C 215.25 179.09375 215.25 179.148438 215.230469 179.207031 C 215.230469 179.347656 215.195312 179.484375 215.167969 179.621094 C 215.167969 179.679688 215.148438 179.734375 215.136719 179.789062 C 215.097656 179.972656 215.050781 180.152344 214.996094 180.332031 C 214.9375 180.503906 214.878906 180.671875 214.808594 180.839844 L 214.738281 180.992188 C 214.6875 181.117188 214.625 181.238281 214.566406 181.355469 C 214.539062 181.40625 214.515625 181.453125 214.484375 181.507812 C 214.398438 181.664062 214.304688 181.820312 214.207031 181.96875 C 214.035156 185.070312 213.445312 188.09375 212.4375 191.03125 C 214.628906 191.484375 216.882812 191.820312 219.03125 191.265625 C 223.519531 190.097656 226.253906 185.128906 226.046875 180.503906 C 225.871094 176.542969 223.636719 170.527344 220.070312 168.3125 C 217.929688 166.980469 215.226562 166.25 212.449219 165.9375 C 212.683594 166.824219 212.949219 167.90625 213.207031 169.152344 Z M 213.207031 169.152344 " fill-opacity="1" fill-rule="nonzero"/><path fill="#6d6e71" d="M 166.464844 188.265625 C 168.75 187.777344 171.117188 187.246094 172.941406 185.808594 C 175.355469 183.929688 176.457031 180.660156 176.054688 177.628906 L 176.054688 178.441406 C 176.054688 178.859375 176.015625 179.269531 175.933594 179.679688 C 175.851562 180.085938 175.730469 180.480469 175.570312 180.867188 C 175.410156 181.25 175.214844 181.617188 174.984375 181.960938 C 174.753906 182.308594 174.488281 182.628906 174.195312 182.921875 C 173.902344 183.21875 173.578125 183.480469 173.234375 183.710938 C 172.886719 183.941406 172.519531 184.136719 172.136719 184.296875 C 171.75 184.457031 171.355469 184.578125 170.945312 184.660156 C 170.535156 184.742188 170.125 184.78125 169.707031 184.78125 L 155.652344 184.78125 C 155.234375 184.78125 154.820312 184.742188 154.410156 184.660156 C 154.003906 184.578125 153.605469 184.457031 153.222656 184.296875 C 152.835938 184.136719 152.46875 183.941406 152.125 183.710938 C 151.777344 183.480469 151.457031 183.21875 151.160156 182.921875 C 150.867188 182.628906 150.605469 182.308594 150.371094 181.960938 C 150.140625 181.617188 149.945312 181.25 149.785156 180.867188 C 149.625 180.480469 149.503906 180.085938 149.421875 179.679688 C 149.34375 179.269531 149.300781 178.859375 149.300781 178.441406 L 149.300781 169.855469 C 149.300781 169.660156 149.371094 169.496094 149.507812 169.359375 C 149.644531 169.21875 149.8125 169.152344 150.007812 169.152344 L 170.378906 169.152344 C 167.933594 167.597656 165.277344 166.609375 162.410156 166.183594 C 157.691406 165.394531 151.273438 165.507812 146.804688 167.851562 C 144.867188 172.417969 143.898438 177.179688 143.890625 182.140625 C 143.878906 184.910156 144.210938 187.636719 144.878906 190.324219 C 145.554688 190.742188 146.273438 191.054688 147.042969 191.257812 C 149.503906 191.898438 152.097656 191.359375 154.582031 190.828125 Z M 166.464844 188.265625 " fill-opacity="1" fill-rule="nonzero"/><path fill="#6d6e71" d="M 252.273438 206.382812 L 228.070312 198.6875 C 227.976562 198.660156 227.894531 198.613281 227.824219 198.546875 C 226 201.472656 223.785156 204.066406 221.171875 206.320312 C 221.039062 206.4375 220.882812 206.496094 220.707031 206.496094 C 220.492188 206.496094 220.316406 206.414062 220.175781 206.253906 C 220.078125 206.144531 220.023438 206.015625 220.007812 205.871094 C 216.855469 209.054688 213.199219 211.484375 209.042969 213.15625 C 209.058594 213.3125 209.027344 213.457031 208.949219 213.589844 C 208.867188 213.726562 208.753906 213.820312 208.613281 213.878906 C 207.132812 214.480469 205.609375 215.023438 204.039062 215.5 C 203.449219 215.882812 202.867188 216.238281 202.269531 216.582031 C 202.132812 216.660156 201.992188 216.75 201.855469 216.835938 L 255.878906 216.835938 C 256.183594 216.394531 256.433594 215.917969 256.625 215.417969 C 256.820312 214.917969 256.953125 214.398438 257.027344 213.867188 C 257.097656 213.332031 257.109375 212.796875 257.054688 212.261719 C 257.003906 211.726562 256.890625 211.207031 256.714844 210.695312 C 256.539062 210.1875 256.308594 209.707031 256.019531 209.25 C 255.730469 208.796875 255.394531 208.382812 255.007812 208.003906 C 254.621094 207.628906 254.199219 207.304688 253.738281 207.027344 C 253.273438 206.75 252.785156 206.53125 252.273438 206.367188 Z M 252.273438 206.382812 " fill-opacity="1" fill-rule="nonzero"/><path fill="#e6e7e8" d="M 159.6875 156.214844 L 158.746094 161.84375 L 149.847656 161.84375 L 150.835938 156.253906 C 153.480469 156.214844 156.480469 156.207031 159.6875 156.214844 Z M 159.6875 156.214844 " fill-opacity="1" fill-rule="nonzero"/><path fill="#e6e7e8" d="M 211.117188 161.84375 L 202.210938 161.84375 L 201.410156 157.023438 L 201.5 157.023438 C 201.792969 157.03125 202.078125 157.007812 202.367188 156.953125 C 202.652344 156.898438 202.929688 156.816406 203.195312 156.699219 C 203.464844 156.585938 203.714844 156.441406 203.953125 156.269531 C 204.1875 156.101562 204.402344 155.90625 204.597656 155.6875 C 204.789062 155.46875 204.957031 155.234375 205.097656 154.980469 C 205.238281 154.726562 205.351562 154.460938 205.433594 154.179688 C 205.519531 153.902344 205.570312 153.617188 205.589844 153.328125 C 205.609375 153.035156 205.597656 152.746094 205.554688 152.460938 L 198.191406 102.398438 L 200.605469 102.398438 Z M 211.117188 161.84375 " fill-opacity="1" fill-rule="nonzero"/><path fill="#e6e7e8" d="M 188.089844 161.84375 L 172.535156 161.84375 L 172.960938 156.355469 C 178.023438 156.4375 183.085938 156.550781 187.6875 156.664062 Z M 188.089844 161.84375 " fill-opacity="1" fill-rule="nonzero"/><path fill="#e6e7e8" d="M 159.6875 156.214844 L 158.746094 161.84375 L 149.847656 161.84375 L 150.828125 156.253906 C 153.480469 156.214844 156.480469 156.207031 159.6875 156.214844 Z M 159.6875 156.214844 " fill-opacity="1" fill-rule="nonzero"/><path fill="#58595b" d="M 256.582031 215.5 C 252.089844 215.304688 247.710938 214.488281 243.449219 213.054688 C 240.484375 212.054688 237.523438 210.695312 235.480469 208.335938 C 233.632812 206.199219 232.726562 203.082031 233.660156 200.46875 L 228.054688 198.6875 C 227.964844 198.660156 227.878906 198.613281 227.808594 198.546875 C 225.984375 201.472656 223.769531 204.066406 221.15625 206.320312 C 221.023438 206.4375 220.871094 206.496094 220.691406 206.496094 C 220.476562 206.496094 220.300781 206.414062 220.160156 206.253906 C 220.0625 206.144531 220.007812 206.015625 219.992188 205.871094 C 216.839844 209.054688 213.183594 211.484375 209.027344 213.15625 C 209.042969 213.3125 209.011719 213.457031 208.933594 213.589844 C 208.851562 213.726562 208.742188 213.820312 208.597656 213.878906 C 207.117188 214.480469 205.59375 215.023438 204.023438 215.5 C 203.4375 215.882812 202.851562 216.238281 202.253906 216.582031 C 202.117188 216.660156 201.976562 216.75 201.839844 216.835938 L 255.878906 216.835938 C 256.164062 216.417969 256.398438 215.972656 256.582031 215.5 Z M 256.582031 215.5 " fill-opacity="1" fill-rule="nonzero"/><path fill="#e2c191" d="M 213.867188 178.453125 L 213.867188 170.5625 L 210.78125 170.5625 L 210.78125 178.738281 L 195.382812 181.140625 C 195.382812 181.140625 191.714844 181.84375 190.015625 178.480469 C 190.015625 178.800781 190.050781 179.121094 190.113281 179.4375 C 190.175781 179.753906 190.269531 180.0625 190.394531 180.359375 C 190.515625 180.65625 190.667969 180.941406 190.847656 181.207031 C 191.027344 181.476562 191.234375 181.722656 191.460938 181.953125 C 191.691406 182.179688 191.9375 182.382812 192.207031 182.5625 C 192.476562 182.742188 192.757812 182.894531 193.058594 183.019531 C 193.355469 183.140625 193.664062 183.234375 193.980469 183.296875 C 194.296875 183.363281 194.617188 183.394531 194.941406 183.394531 L 208.941406 183.394531 C 209.265625 183.394531 209.589844 183.363281 209.90625 183.296875 C 210.222656 183.234375 210.53125 183.140625 210.832031 183.015625 C 211.132812 182.890625 211.417969 182.738281 211.683594 182.558594 C 211.953125 182.378906 212.203125 182.171875 212.433594 181.941406 C 212.660156 181.714844 212.863281 181.464844 213.042969 181.195312 C 213.222656 180.925781 213.375 180.640625 213.496094 180.339844 C 213.621094 180.042969 213.714844 179.734375 213.777344 179.414062 C 213.839844 179.097656 213.867188 178.777344 213.867188 178.453125 Z M 213.867188 178.453125 " fill-opacity="1" fill-rule="nonzero"/><path fill="#e2c191" d="M 145.050781 195.277344 C 144.78125 195.222656 144.507812 195.1875 144.230469 195.179688 C 143.667969 195.503906 143.0625 195.660156 142.410156 195.636719 C 141.757812 195.617188 141.164062 195.425781 140.621094 195.0625 C 139.574219 194.339844 138.585938 193.160156 138.8125 191.910156 C 138.050781 193.207031 136.226562 193.863281 134.9375 193.089844 C 135.347656 193.632812 136.132812 194.054688 136.316406 194.699219 C 136.457031 195.234375 136.46875 195.769531 136.34375 196.308594 C 136.214844 196.847656 135.972656 197.328125 135.609375 197.742188 C 134.882812 198.554688 133.910156 199.199219 132.816406 199.210938 L 132.40625 199.210938 C 133.769531 200.191406 133.84375 202.507812 132.542969 203.570312 C 133.085938 204.769531 133.398438 206.027344 133.480469 207.339844 C 133.753906 205.5625 134.351562 203.898438 135.277344 202.355469 C 137.480469 198.71875 141.6875 196.546875 145.089844 195.316406 C 145.078125 195.304688 145.066406 195.289062 145.050781 195.277344 Z M 145.050781 195.277344 " fill-opacity="1" fill-rule="nonzero"/><path fill="#e2c191" d="M 134.511719 216.851562 C 133.671875 214.53125 133.257812 212.140625 133.273438 209.671875 C 133.113281 210.347656 132.714844 210.816406 132.074219 211.082031 C 131.117188 211.410156 130.050781 210.699219 129.617188 209.796875 C 129.183594 208.898438 129.234375 207.828125 129.257812 206.816406 C 129.035156 207.050781 128.769531 207.214844 128.464844 207.308594 C 128.15625 207.40625 127.84375 207.421875 127.527344 207.359375 C 126.902344 207.226562 126.316406 206.996094 125.769531 206.660156 C 124.960938 206.222656 123.792969 206.28125 122.980469 205.855469 C 123.820312 206.738281 124.632812 207.796875 124.640625 209.015625 C 124.652344 210.230469 123.421875 211.476562 122.289062 211.035156 C 121.835938 210.808594 121.464844 210.492188 121.171875 210.085938 C 120.878906 209.671875 120.496094 209.378906 120.027344 209.199219 C 119.550781 209.070312 118.941406 209.324219 118.882812 209.808594 C 119.449219 210.300781 119.792969 210.917969 119.921875 211.65625 C 119.972656 212.023438 119.90625 212.367188 119.71875 212.6875 C 119.535156 213.011719 119.269531 213.242188 118.921875 213.378906 C 118.230469 213.585938 117.015625 213.070312 117.15625 212.367188 C 117.042969 212.914062 116.839844 213.425781 116.546875 213.90625 C 116.257812 214.382812 115.894531 214.796875 115.457031 215.152344 C 115.023438 215.503906 114.542969 215.773438 114.015625 215.960938 C 113.488281 216.148438 112.941406 216.242188 112.382812 216.242188 C 111.820312 216.214844 111.28125 216.09375 110.761719 215.878906 C 110.246094 215.664062 109.777344 215.367188 109.359375 214.992188 C 108.945312 214.617188 108.601562 214.183594 108.335938 213.691406 C 108.070312 213.195312 107.894531 212.671875 107.808594 212.121094 L 107.339844 212.144531 C 107.175781 212.742188 106.863281 213.242188 106.394531 213.644531 C 105.578125 214.34375 104.523438 214.472656 103.515625 214.542969 C 102.734375 214.59375 101.925781 214.652344 101.394531 215.050781 C 101.140625 215.253906 101.003906 215.519531 100.984375 215.84375 C 100.96875 215.984375 101.011719 216.105469 101.117188 216.203125 C 101.316406 216.375 101.394531 216.59375 101.351562 216.851562 Z M 134.511719 216.851562 " fill-opacity="1" fill-rule="nonzero"/><path fill="#e2c191" d="M 254.644531 205.792969 C 254.796875 206.078125 254.976562 206.339844 255.183594 206.585938 C 255.394531 206.832031 255.625 207.050781 255.882812 207.246094 C 256.136719 207.441406 256.410156 207.609375 256.703125 207.746094 C 256.992188 207.882812 257.296875 207.984375 257.609375 208.058594 C 257.925781 208.128906 258.242188 208.167969 258.566406 208.171875 C 258.886719 208.175781 259.207031 208.144531 259.523438 208.082031 C 259.835938 208.019531 260.144531 207.921875 260.4375 207.792969 C 260.734375 207.664062 261.011719 207.503906 261.269531 207.316406 C 261.273438 207.585938 261.308594 207.855469 261.371094 208.117188 C 261.433594 208.382812 261.527344 208.636719 261.648438 208.878906 C 261.765625 209.121094 261.914062 209.351562 262.085938 209.5625 C 262.253906 209.773438 262.449219 209.960938 262.664062 210.128906 C 262.875 210.296875 263.105469 210.4375 263.351562 210.554688 C 263.597656 210.671875 263.851562 210.757812 264.117188 210.820312 C 264.382812 210.878906 264.652344 210.90625 264.925781 210.90625 C 265.195312 210.90625 265.464844 210.875 265.730469 210.8125 C 267.285156 210.460938 268.714844 211.625 269.882812 212.699219 C 270.472656 213.246094 270.933594 213.886719 271.261719 214.621094 C 271.59375 215.351562 271.769531 216.121094 271.789062 216.921875 C 266.875 217.804688 261.96875 217.769531 257.070312 216.8125 C 257.832031 214.910156 258.507812 212.753906 257.753906 210.859375 C 257.367188 210.015625 256.859375 209.257812 256.230469 208.578125 C 255.550781 207.796875 255.304688 206.578125 254.644531 205.792969 Z M 254.644531 205.792969 " fill-opacity="1" fill-rule="nonzero"/><path fill="#58595b" d="M 171.148438 213.59375 C 171.574219 213.515625 171.988281 213.394531 172.390625 213.234375 C 172.792969 213.074219 173.175781 212.878906 173.542969 212.648438 C 173.910156 212.414062 174.25 212.152344 174.566406 211.855469 C 174.878906 211.558594 175.164062 211.234375 175.417969 210.882812 C 175.671875 210.535156 175.890625 210.164062 176.078125 209.769531 C 176.261719 209.378906 176.40625 208.972656 176.511719 208.554688 C 176.617188 208.136719 176.683594 207.710938 176.710938 207.277344 C 176.738281 206.847656 176.722656 206.414062 176.664062 205.988281 C 177.046875 211.945312 153.234375 213.914062 153.234375 213.914062 L 135.148438 213.914062 C 135.347656 214.871094 135.625 215.804688 135.972656 216.714844 C 135.992188 216.761719 136.007812 216.808594 136.019531 216.855469 L 153.628906 216.855469 Z M 171.148438 213.59375 " fill-opacity="1" fill-rule="nonzero"/><path fill="#939598" d="M 147.28125 199.539062 C 146.6875 198.597656 146.148438 197.628906 145.660156 196.628906 C 142.464844 197.769531 138.480469 199.785156 136.464844 203.097656 C 134.628906 206.140625 134.511719 209.5625 134.851562 212.199219 C 134.851562 212.199219 137.851562 199.957031 147.28125 199.539062 Z M 147.28125 199.539062 " fill-opacity="1" fill-rule="nonzero"/><path fill="#a97c50" d="M 96.113281 222.988281 L 279.089844 222.988281 L 279.089844 225.183594 L 96.113281 225.183594 Z M 96.113281 222.988281 " fill-opacity="1" fill-rule="nonzero"/><path fill="#ffdebd" d="M 279.089844 218.265625 L 96.128906 218.265625 L 96.128906 219.730469 L 279.109375 219.730469 Z M 279.089844 218.265625 " fill-opacity="1" fill-rule="nonzero"/><path fill="#232323" d="M 199.550781 190.363281 C 199.097656 189.566406 197.675781 190.050781 197.015625 190.253906 C 195.109375 190.875 193.386719 191.824219 191.847656 193.101562 C 190.992188 193.753906 190.253906 194.511719 189.632812 195.386719 C 188.96875 196.261719 188.535156 197.238281 188.332031 198.316406 C 188.308594 198.507812 188.5625 198.519531 188.652344 198.402344 C 189.28125 197.570312 190.003906 196.835938 190.824219 196.191406 C 191.585938 195.59375 192.28125 194.953125 193.0625 194.398438 C 194.648438 193.347656 196.328125 192.46875 198.097656 191.761719 C 198.652344 191.515625 200.085938 191.300781 199.550781 190.363281 Z M 199.550781 190.363281 " fill-opacity="1" fill-rule="nonzero"/><path fill="#00aeef" d="M 192.488281 172.460938 L 211.390625 172.460938 L 211.390625 174.097656 C 211.390625 174.582031 211.34375 175.0625 211.246094 175.535156 C 211.152344 176.011719 211.011719 176.472656 210.824219 176.921875 C 210.640625 177.367188 210.410156 177.792969 210.140625 178.195312 C 209.871094 178.601562 209.5625 178.972656 209.21875 179.316406 C 208.875 179.65625 208.503906 179.960938 208.097656 180.230469 C 207.695312 180.5 207.269531 180.726562 206.820312 180.910156 C 206.371094 181.097656 205.90625 181.234375 205.429688 181.328125 C 204.953125 181.421875 204.472656 181.46875 203.988281 181.46875 L 199.878906 181.46875 C 199.394531 181.46875 198.914062 181.421875 198.4375 181.328125 C 197.960938 181.234375 197.5 181.09375 197.050781 180.90625 C 196.605469 180.722656 196.179688 180.496094 195.773438 180.226562 C 195.371094 179.957031 194.996094 179.652344 194.65625 179.308594 C 194.3125 178.964844 194.003906 178.59375 193.734375 178.191406 C 193.464844 177.789062 193.238281 177.363281 193.050781 176.917969 C 192.867188 176.46875 192.726562 176.007812 192.632812 175.53125 C 192.539062 175.058594 192.488281 174.578125 192.488281 174.09375 L 192.488281 172.457031 Z M 192.488281 172.460938 " fill-opacity="1" fill-rule="nonzero"/><path fill="#ed1c24" d="M 153.234375 172.460938 L 172.132812 172.460938 L 172.132812 174.097656 C 172.132812 174.582031 172.085938 175.0625 171.992188 175.535156 C 171.894531 176.011719 171.753906 176.472656 171.570312 176.921875 C 171.382812 177.367188 171.15625 177.792969 170.886719 178.195312 C 170.613281 178.601562 170.308594 178.972656 169.964844 179.316406 C 169.621094 179.65625 169.246094 179.960938 168.84375 180.230469 C 168.4375 180.5 168.011719 180.726562 167.5625 180.910156 C 167.113281 181.097656 166.652344 181.234375 166.175781 181.328125 C 165.699219 181.421875 165.21875 181.46875 164.734375 181.46875 L 160.625 181.46875 C 160.140625 181.46875 159.660156 181.421875 159.183594 181.328125 C 158.707031 181.234375 158.246094 181.09375 157.796875 180.90625 C 157.347656 180.722656 156.921875 180.496094 156.519531 180.226562 C 156.113281 179.957031 155.742188 179.652344 155.398438 179.308594 C 155.054688 178.964844 154.75 178.59375 154.480469 178.191406 C 154.210938 177.789062 153.984375 177.363281 153.796875 176.917969 C 153.609375 176.46875 153.472656 176.007812 153.375 175.53125 C 153.28125 175.058594 153.234375 174.578125 153.234375 174.09375 L 153.234375 172.457031 Z M 153.234375 172.460938 " fill-opacity="1" fill-rule="nonzero"/><path fill="#232323" d="M 155.652344 185.25 L 169.722656 185.25 C 170.167969 185.25 170.613281 185.207031 171.050781 185.121094 C 171.492188 185.03125 171.917969 184.902344 172.332031 184.730469 C 172.746094 184.558594 173.140625 184.351562 173.511719 184.101562 C 173.882812 183.855469 174.230469 183.570312 174.546875 183.253906 C 174.863281 182.9375 175.144531 182.59375 175.394531 182.222656 C 175.644531 181.851562 175.855469 181.460938 176.027344 181.046875 C 176.199219 180.632812 176.328125 180.207031 176.414062 179.769531 C 176.503906 179.332031 176.546875 178.886719 176.546875 178.441406 L 176.546875 176.261719 L 188.132812 176.261719 L 188.132812 178.453125 C 188.132812 178.898438 188.179688 179.339844 188.265625 179.777344 C 188.351562 180.214844 188.484375 180.640625 188.652344 181.054688 C 188.824219 181.464844 189.035156 181.855469 189.285156 182.226562 C 189.53125 182.597656 189.816406 182.941406 190.128906 183.257812 C 190.445312 183.574219 190.789062 183.855469 191.164062 184.101562 C 191.535156 184.351562 191.925781 184.558594 192.339844 184.730469 C 192.753906 184.902344 193.179688 185.03125 193.617188 185.117188 C 194.054688 185.207031 194.496094 185.25 194.945312 185.25 L 208.941406 185.25 C 209.390625 185.25 209.832031 185.207031 210.273438 185.121094 C 210.710938 185.03125 211.136719 184.902344 211.550781 184.730469 C 211.960938 184.5625 212.355469 184.351562 212.726562 184.105469 C 213.097656 183.855469 213.441406 183.574219 213.757812 183.257812 C 214.074219 182.941406 214.359375 182.601562 214.605469 182.230469 C 214.855469 181.859375 215.066406 181.464844 215.238281 181.054688 C 215.40625 180.640625 215.539062 180.214844 215.625 179.777344 C 215.714844 179.339844 215.757812 178.898438 215.757812 178.453125 L 215.757812 169.855469 C 215.757812 169.699219 215.726562 169.550781 215.667969 169.40625 C 215.609375 169.261719 215.523438 169.132812 215.410156 169.023438 C 215.300781 168.914062 215.171875 168.828125 215.027344 168.769531 C 214.882812 168.710938 214.734375 168.679688 214.574219 168.679688 L 150.007812 168.679688 C 149.851562 168.679688 149.699219 168.710938 149.554688 168.769531 C 149.410156 168.828125 149.285156 168.914062 149.171875 169.023438 C 149.0625 169.132812 148.976562 169.261719 148.917969 169.40625 C 148.859375 169.550781 148.828125 169.699219 148.828125 169.855469 L 148.828125 178.441406 C 148.828125 178.886719 148.875 179.332031 148.960938 179.769531 C 149.046875 180.207031 149.179688 180.632812 149.351562 181.046875 C 149.523438 181.457031 149.730469 181.851562 149.980469 182.222656 C 150.230469 182.59375 150.511719 182.9375 150.828125 183.253906 C 151.144531 183.570312 151.488281 183.851562 151.863281 184.101562 C 152.234375 184.347656 152.628906 184.558594 153.042969 184.730469 C 153.453125 184.902344 153.882812 185.03125 154.320312 185.117188 C 154.757812 185.207031 155.203125 185.25 155.652344 185.25 Z M 151.1875 171.035156 L 213.394531 171.035156 L 213.394531 178.453125 C 213.394531 178.746094 213.363281 179.035156 213.308594 179.320312 C 213.25 179.605469 213.164062 179.882812 213.054688 180.152344 C 212.941406 180.421875 212.804688 180.675781 212.640625 180.917969 C 212.480469 181.160156 212.296875 181.386719 212.089844 181.59375 C 211.882812 181.796875 211.65625 181.984375 211.414062 182.144531 C 211.171875 182.308594 210.914062 182.445312 210.644531 182.554688 C 210.375 182.667969 210.097656 182.753906 209.8125 182.808594 C 209.523438 182.867188 209.234375 182.894531 208.941406 182.894531 L 194.941406 182.894531 C 194.648438 182.894531 194.359375 182.867188 194.074219 182.808594 C 193.785156 182.753906 193.507812 182.667969 193.238281 182.558594 C 192.96875 182.445312 192.710938 182.308594 192.46875 182.144531 C 192.226562 181.984375 192 181.800781 191.792969 181.59375 C 191.585938 181.386719 191.402344 181.164062 191.242188 180.921875 C 191.078125 180.679688 190.941406 180.421875 190.828125 180.152344 C 190.71875 179.882812 190.632812 179.605469 190.574219 179.320312 C 190.519531 179.035156 190.488281 178.746094 190.488281 178.453125 L 190.488281 175.082031 C 190.488281 174.925781 190.460938 174.777344 190.398438 174.632812 C 190.339844 174.488281 190.253906 174.359375 190.144531 174.25 C 190.03125 174.140625 189.902344 174.054688 189.757812 173.996094 C 189.613281 173.9375 189.464844 173.90625 189.308594 173.90625 C 189.214844 173.90625 189.121094 173.921875 189.03125 173.945312 C 188.9375 173.921875 188.84375 173.90625 188.746094 173.90625 L 175.683594 173.90625 C 175.628906 173.902344 175.574219 173.902344 175.523438 173.90625 C 175.46875 173.902344 175.414062 173.902344 175.363281 173.90625 C 175.207031 173.90625 175.054688 173.9375 174.910156 173.996094 C 174.765625 174.054688 174.640625 174.140625 174.53125 174.25 C 174.417969 174.363281 174.335938 174.488281 174.273438 174.632812 C 174.214844 174.777344 174.183594 174.925781 174.183594 175.082031 L 174.183594 178.441406 C 174.183594 178.734375 174.15625 179.023438 174.097656 179.308594 C 174.039062 179.597656 173.957031 179.875 173.84375 180.144531 C 173.730469 180.414062 173.59375 180.671875 173.429688 180.914062 C 173.269531 181.160156 173.082031 181.382812 172.875 181.589844 C 172.667969 181.796875 172.445312 181.980469 172.199219 182.144531 C 171.957031 182.308594 171.699219 182.445312 171.429688 182.554688 C 171.160156 182.667969 170.878906 182.753906 170.59375 182.808594 C 170.304688 182.867188 170.015625 182.894531 169.722656 182.894531 L 155.652344 182.894531 C 155.359375 182.894531 155.066406 182.867188 154.78125 182.808594 C 154.492188 182.753906 154.214844 182.667969 153.945312 182.554688 C 153.671875 182.445312 153.414062 182.308594 153.171875 182.144531 C 152.929688 181.980469 152.703125 181.796875 152.496094 181.589844 C 152.289062 181.382812 152.105469 181.160156 151.941406 180.914062 C 151.777344 180.671875 151.640625 180.414062 151.527344 180.144531 C 151.417969 179.875 151.332031 179.597656 151.273438 179.308594 C 151.214844 179.023438 151.1875 178.734375 151.1875 178.441406 Z M 151.1875 171.035156 " fill-opacity="1" fill-rule="nonzero"/><g clip-path="url(#9c27ac70d5)"><path fill="#232323" d="M 279.796875 216.382812 L 272.828125 216.382812 C 272.839844 216.011719 272.816406 215.640625 272.761719 215.269531 C 272.707031 214.898438 272.617188 214.539062 272.496094 214.183594 C 272.375 213.832031 272.222656 213.492188 272.039062 213.167969 C 271.855469 212.84375 271.644531 212.535156 271.402344 212.25 C 271.164062 211.964844 270.898438 211.699219 270.609375 211.460938 C 270.320312 211.222656 270.015625 211.015625 269.6875 210.832031 C 269.359375 210.648438 269.019531 210.5 268.664062 210.378906 C 268.3125 210.257812 267.949219 210.171875 267.578125 210.117188 C 267.316406 210.085938 267.054688 210.078125 266.785156 210.066406 C 266.496094 210.0625 266.210938 210.039062 265.925781 209.988281 C 265.734375 209.964844 265.570312 209.882812 265.441406 209.742188 C 265.464844 209.476562 265.535156 209.222656 265.648438 208.980469 C 265.8125 208.59375 265.925781 208.195312 265.996094 207.78125 C 266.292969 205.644531 264.394531 203.894531 262.441406 203.597656 C 261.191406 203.429688 259.957031 203.496094 258.734375 203.796875 C 258.558594 203.289062 258.3125 202.820312 257.996094 202.386719 C 257.679688 201.953125 257.304688 201.574219 256.875 201.25 C 256.445312 200.929688 255.980469 200.675781 255.472656 200.496094 C 254.96875 200.3125 254.445312 200.207031 253.910156 200.183594 C 253.375 200.15625 252.84375 200.207031 252.324219 200.339844 C 251.804688 200.472656 251.3125 200.675781 250.851562 200.957031 C 250.394531 201.234375 249.984375 201.574219 249.628906 201.972656 C 249.269531 202.375 248.980469 202.816406 248.753906 203.304688 L 229.21875 197.078125 C 231.695312 192.40625 232.917969 187.425781 232.882812 182.140625 C 232.871094 178.609375 232.390625 175.148438 231.441406 171.75 C 230.488281 168.351562 229.101562 165.144531 227.273438 162.121094 L 216.566406 101.46875 C 216.554688 101.425781 216.542969 101.378906 216.53125 101.335938 C 216.53125 101.304688 216.511719 101.269531 216.5 101.242188 C 216.488281 101.210938 216.464844 101.171875 216.449219 101.136719 C 216.429688 101.105469 216.414062 101.070312 216.394531 101.039062 C 216.375 101.011719 216.355469 100.988281 216.332031 100.964844 C 216.308594 100.925781 216.277344 100.894531 216.25 100.859375 L 216.175781 100.800781 C 216.140625 100.773438 216.113281 100.742188 216.078125 100.71875 C 216.046875 100.699219 216.015625 100.679688 215.980469 100.667969 C 215.949219 100.644531 215.914062 100.625 215.878906 100.609375 C 215.84375 100.609375 215.8125 100.585938 215.777344 100.574219 L 215.664062 100.539062 C 215.628906 100.535156 215.59375 100.535156 215.558594 100.539062 L 215.421875 100.496094 L 159.777344 100.496094 C 159.496094 100.5 159.246094 100.59375 159.03125 100.777344 C 158.816406 100.960938 158.683594 101.191406 158.636719 101.46875 L 147.964844 161.582031 C 147.890625 161.648438 147.828125 161.726562 147.777344 161.808594 C 145.894531 164.867188 144.460938 168.121094 143.476562 171.574219 C 142.496094 175.027344 142 178.550781 141.992188 182.140625 C 141.992188 183.65625 142.082031 185.164062 142.269531 186.667969 C 141.097656 185.960938 139.503906 185.328125 137.898438 185.96875 C 136.191406 186.652344 135.472656 188.363281 134.898438 189.738281 L 134.828125 189.90625 C 134.511719 190.667969 133.859375 191.929688 133.011719 191.972656 C 132.546875 192.007812 131.964844 191.648438 131.355469 191.28125 C 130.4375 190.730469 129.300781 190.042969 127.925781 190.351562 C 126.503906 190.671875 125.425781 192.058594 125.300781 193.726562 C 125.28125 194.855469 125.476562 195.941406 125.890625 196.992188 L 125.945312 197.171875 C 126.222656 197.890625 126.347656 198.632812 126.328125 199.398438 C 125.742188 199.449219 125.171875 199.378906 124.617188 199.183594 C 124.425781 199.121094 124.234375 199.046875 124.039062 198.976562 C 123.128906 198.636719 121.992188 198.214844 120.785156 198.546875 C 119.234375 198.972656 118.117188 200.554688 118.097656 202.394531 C 118.097656 203.058594 118.191406 203.707031 118.386719 204.339844 C 118.300781 204.273438 118.214844 204.203125 118.132812 204.125 C 117.421875 203.484375 115.941406 202.140625 114.214844 202.722656 C 113.492188 203.019531 112.90625 203.484375 112.457031 204.121094 C 112.226562 204.398438 111.941406 204.738281 111.78125 204.765625 C 111.621094 204.792969 111.171875 204.421875 110.835938 204.121094 C 110.273438 203.621094 109.578125 202.980469 108.621094 202.839844 C 107.808594 202.714844 107.078125 202.90625 106.433594 203.414062 C 105.5625 204.105469 105.066406 205.003906 104.941406 206.105469 C 104.882812 207.105469 104.996094 208.085938 105.28125 209.046875 C 105.359375 209.359375 105.433594 209.667969 105.492188 209.980469 C 105.683594 211.015625 105.542969 211.847656 105.109375 212.21875 C 104.675781 212.585938 104.023438 212.597656 103.328125 212.664062 C 102.375 212.726562 101.183594 212.8125 100.203125 213.546875 C 99.472656 214.117188 99.089844 214.863281 99.058594 215.785156 C 99.050781 215.988281 99.066406 216.1875 99.109375 216.382812 L 95.402344 216.382812 C 95.246094 216.382812 95.097656 216.414062 94.953125 216.472656 C 94.808594 216.53125 94.679688 216.617188 94.570312 216.726562 C 94.460938 216.839844 94.375 216.964844 94.316406 217.109375 C 94.253906 217.253906 94.226562 217.402344 94.226562 217.558594 L 94.226562 225.890625 C 94.226562 226.046875 94.253906 226.195312 94.316406 226.339844 C 94.375 226.484375 94.460938 226.609375 94.570312 226.722656 C 94.679688 226.832031 94.808594 226.917969 94.953125 226.976562 C 95.097656 227.035156 95.246094 227.066406 95.402344 227.066406 L 279.796875 227.066406 C 279.953125 227.066406 280.105469 227.035156 280.25 226.976562 C 280.390625 226.917969 280.519531 226.832031 280.628906 226.722656 C 280.742188 226.609375 280.824219 226.484375 280.886719 226.339844 C 280.945312 226.195312 280.976562 226.046875 280.976562 225.890625 L 280.976562 217.558594 C 280.976562 217.402344 280.945312 217.253906 280.886719 217.109375 C 280.824219 216.964844 280.742188 216.839844 280.628906 216.726562 C 280.519531 216.617188 280.390625 216.53125 280.25 216.472656 C 280.105469 216.414062 279.953125 216.382812 279.796875 216.382812 Z M 254.050781 202.535156 C 254.394531 202.59375 254.71875 202.703125 255.027344 202.867188 C 255.335938 203.03125 255.609375 203.242188 255.847656 203.496094 C 256.085938 203.75 256.277344 204.039062 256.421875 204.355469 C 256.5625 204.671875 256.652344 205.003906 256.6875 205.351562 C 256.699219 205.539062 256.753906 205.714844 256.847656 205.875 C 256.945312 206.035156 257.070312 206.167969 257.230469 206.269531 C 257.386719 206.367188 257.558594 206.429688 257.746094 206.445312 C 257.933594 206.464844 258.117188 206.441406 258.289062 206.371094 C 259.515625 205.902344 260.78125 205.746094 262.082031 205.90625 C 262.878906 206.027344 263.757812 206.738281 263.660156 207.429688 C 263.613281 207.675781 263.539062 207.917969 263.445312 208.152344 C 263.210938 208.765625 262.894531 209.605469 263.210938 210.523438 C 263.398438 210.992188 263.691406 211.390625 264.085938 211.707031 C 264.484375 212.023438 264.933594 212.226562 265.4375 212.304688 C 265.851562 212.386719 266.269531 212.425781 266.695312 212.429688 C 266.898438 212.429688 267.105469 212.429688 267.3125 212.472656 C 267.769531 212.550781 268.199219 212.703125 268.601562 212.9375 C 269.003906 213.171875 269.347656 213.472656 269.640625 213.835938 C 269.929688 214.195312 270.148438 214.597656 270.289062 215.039062 C 270.429688 215.484375 270.488281 215.933594 270.464844 216.398438 L 258.269531 216.398438 C 258.503906 215.835938 258.683594 215.253906 258.800781 214.65625 C 258.917969 214.058594 258.96875 213.453125 258.960938 212.839844 C 258.949219 212.230469 258.878906 211.628906 258.742188 211.03125 C 258.605469 210.4375 258.410156 209.863281 258.15625 209.308594 C 257.902344 208.753906 257.589844 208.230469 257.226562 207.742188 C 256.863281 207.25 256.449219 206.800781 255.992188 206.398438 C 255.535156 205.992188 255.039062 205.640625 254.507812 205.335938 C 253.976562 205.035156 253.417969 204.792969 252.835938 204.605469 L 251.03125 204.03125 C 251.351562 203.515625 251.78125 203.125 252.324219 202.855469 C 252.871094 202.585938 253.445312 202.480469 254.050781 202.535156 Z M 212.613281 161.359375 L 202.265625 102.851562 L 214.402344 102.851562 L 224.75 161.359375 Z M 160.753906 102.851562 L 199.871094 102.851562 L 210.21875 161.359375 L 150.40625 161.359375 Z M 149.394531 163.714844 L 225.488281 163.714844 C 227.128906 166.507812 228.375 169.464844 229.230469 172.589844 C 230.082031 175.710938 230.515625 178.890625 230.523438 182.128906 C 230.523438 190.984375 226.859375 198.867188 219.929688 204.890625 C 219.8125 204.996094 219.71875 205.117188 219.652344 205.253906 C 219.582031 205.394531 219.542969 205.542969 219.53125 205.699219 C 219.523438 205.851562 219.542969 206.003906 219.589844 206.152344 C 219.640625 206.300781 219.71875 206.433594 219.820312 206.550781 C 219.921875 206.667969 220.042969 206.761719 220.183594 206.832031 C 220.324219 206.898438 220.472656 206.9375 220.628906 206.949219 C 220.785156 206.960938 220.933594 206.941406 221.082031 206.890625 C 221.230469 206.84375 221.363281 206.765625 221.480469 206.664062 C 224.019531 204.476562 226.191406 201.972656 228 199.15625 L 252.140625 206.832031 C 253.117188 207.136719 253.96875 207.644531 254.699219 208.359375 C 255.429688 209.074219 255.957031 209.914062 256.28125 210.882812 C 256.378906 211.167969 256.453125 211.457031 256.511719 211.75 C 256.320312 211.453125 256.113281 211.171875 255.882812 210.90625 C 252.894531 207.433594 247.324219 207.257812 247.089844 207.25 C 246.933594 207.246094 246.78125 207.269531 246.636719 207.324219 C 246.492188 207.378906 246.363281 207.460938 246.25 207.570312 C 246.136719 207.675781 246.046875 207.800781 245.984375 207.945312 C 245.921875 208.085938 245.886719 208.234375 245.886719 208.390625 C 245.882812 208.546875 245.90625 208.699219 245.960938 208.84375 C 246.019531 208.988281 246.101562 209.117188 246.207031 209.230469 C 246.3125 209.34375 246.4375 209.433594 246.582031 209.496094 C 246.722656 209.5625 246.871094 209.597656 247.027344 209.601562 C 247.074219 209.601562 251.796875 209.765625 254.09375 212.441406 C 254.554688 212.992188 254.890625 213.605469 255.105469 214.289062 C 255.320312 214.96875 255.398438 215.667969 255.335938 216.378906 L 202.765625 216.378906 C 204.8125 215.8125 206.820312 215.128906 208.785156 214.328125 C 208.933594 214.269531 209.058594 214.1875 209.171875 214.078125 C 209.285156 213.96875 209.371094 213.839844 209.429688 213.695312 C 209.492188 213.554688 209.523438 213.402344 209.523438 213.246094 C 209.523438 213.089844 209.496094 212.941406 209.4375 212.796875 C 209.378906 212.652344 209.292969 212.523438 209.183594 212.410156 C 209.074219 212.300781 208.945312 212.214844 208.800781 212.152344 C 208.65625 212.09375 208.507812 212.0625 208.351562 212.0625 C 208.195312 212.0625 208.042969 212.089844 207.898438 212.148438 C 201.261719 214.851562 193.59375 216.335938 185.730469 216.378906 L 166.46875 216.378906 L 171.496094 215.445312 C 171.992188 215.347656 172.472656 215.210938 172.941406 215.035156 C 173.414062 214.855469 173.863281 214.640625 174.296875 214.382812 C 174.730469 214.128906 175.136719 213.839844 175.519531 213.511719 C 175.902344 213.1875 176.253906 212.832031 176.578125 212.445312 C 176.898438 212.0625 177.183594 211.652344 177.433594 211.214844 C 177.683594 210.78125 177.898438 210.328125 178.070312 209.855469 C 178.242188 209.386719 178.375 208.902344 178.460938 208.410156 C 178.550781 207.914062 178.597656 207.417969 178.601562 206.914062 L 179.1875 206.957031 L 186.265625 206.957031 C 189.273438 206.738281 192.382812 206.503906 195.359375 205.476562 C 198.828125 204.277344 201.457031 202.132812 202.816406 199.429688 C 204.464844 196.109375 203.851562 192.058594 201.359375 189.8125 C 199.21875 187.882812 196.253906 187.570312 193.914062 187.53125 C 193.507812 187.53125 193.097656 187.53125 192.6875 187.511719 C 190.746094 187.511719 188.90625 187.476562 187.265625 186.839844 C 186.027344 186.363281 184.832031 185.277344 184.441406 184.058594 C 186.566406 183.585938 188.089844 182.34375 188.089844 180.882812 C 188.089844 179.015625 185.597656 177.5 182.53125 177.5 C 179.464844 177.5 176.972656 179.023438 176.972656 180.882812 C 176.972656 182.429688 178.671875 183.730469 180.992188 184.136719 C 180.730469 184.761719 180.355469 185.308594 179.871094 185.777344 C 179.382812 186.246094 178.824219 186.601562 178.191406 186.839844 C 176.550781 187.476562 174.714844 187.496094 172.769531 187.511719 C 172.359375 187.511719 171.953125 187.511719 171.542969 187.53125 C 169.203125 187.582031 166.238281 187.910156 164.101562 189.8125 C 161.710938 191.96875 161.050781 195.769531 162.453125 199.011719 L 150.285156 200.601562 C 150.285156 200.59375 150.285156 200.585938 150.285156 200.582031 C 146.363281 195.339844 144.375 189.136719 144.375 182.136719 C 144.378906 178.898438 144.808594 175.722656 145.660156 172.597656 C 146.511719 169.476562 147.753906 166.519531 149.394531 163.726562 Z M 136.355469 216.382812 C 135.953125 215.347656 133.621094 208.734375 136.875 203.359375 C 138.742188 200.277344 142.382812 198.355469 145.433594 197.21875 C 146.078125 198.515625 146.8125 199.757812 147.636719 200.949219 L 146.070312 201.15625 C 145.921875 201.183594 145.78125 201.238281 145.652344 201.316406 C 145.523438 201.398438 145.417969 201.5 145.328125 201.621094 C 145.238281 201.742188 145.175781 201.878906 145.136719 202.023438 C 145.097656 202.171875 145.089844 202.316406 145.109375 202.46875 C 145.128906 202.617188 145.175781 202.757812 145.25 202.890625 C 145.324219 203.023438 145.417969 203.136719 145.539062 203.230469 C 145.65625 203.328125 145.785156 203.398438 145.929688 203.441406 C 146.074219 203.488281 146.222656 203.503906 146.375 203.492188 L 169.0625 200.519531 C 170.65625 200.328125 172.113281 200.683594 173.4375 201.585938 L 167.457031 202.664062 C 167.160156 202.722656 166.921875 202.871094 166.742188 203.113281 C 166.5625 203.351562 166.484375 203.625 166.511719 203.925781 C 166.539062 204.222656 166.664062 204.476562 166.882812 204.683594 C 167.105469 204.886719 167.367188 204.992188 167.667969 204.996094 C 167.738281 205.003906 167.808594 205.003906 167.878906 204.996094 L 175.371094 203.648438 C 175.8125 204.394531 176.085938 205.203125 176.195312 206.0625 C 176.21875 206.226562 176.230469 206.394531 176.238281 206.558594 L 168.925781 207.253906 C 168.617188 207.289062 168.359375 207.425781 168.160156 207.660156 C 167.957031 207.898438 167.863281 208.171875 167.878906 208.480469 C 167.890625 208.792969 168.011719 209.054688 168.234375 209.269531 C 168.457031 209.488281 168.722656 209.597656 169.035156 209.605469 L 169.152344 209.605469 L 175.90625 208.945312 C 175.722656 209.476562 175.472656 209.972656 175.160156 210.4375 C 174.84375 210.902344 174.476562 211.316406 174.050781 211.683594 C 173.625 212.050781 173.160156 212.359375 172.65625 212.605469 C 172.152344 212.847656 171.621094 213.023438 171.070312 213.132812 L 153.601562 216.378906 Z M 164.753906 198.390625 C 163.585938 196.027344 163.992188 193.09375 165.683594 191.5625 C 167.246094 190.152344 169.664062 189.917969 171.601562 189.871094 L 172.789062 189.871094 C 174.863281 189.871094 177 189.835938 179.042969 189.042969 C 180.613281 188.4375 181.839844 187.425781 182.730469 186 C 183.617188 187.425781 184.847656 188.441406 186.414062 189.042969 C 188.453125 189.835938 190.605469 189.855469 192.664062 189.871094 L 193.859375 189.871094 C 195.792969 189.917969 198.214844 190.152344 199.777344 191.5625 C 201.476562 193.082031 201.875 196.027344 200.703125 198.390625 C 199.265625 201.28125 196.253906 202.679688 194.605469 203.253906 C 191.9375 204.179688 188.996094 204.398438 186.152344 204.609375 L 184.171875 204.609375 C 184.339844 204.332031 184.457031 204.03125 184.523438 203.707031 C 184.585938 203.386719 184.59375 203.066406 184.546875 202.742188 C 184.496094 202.417969 184.394531 202.109375 184.234375 201.824219 C 184.078125 201.535156 183.875 201.285156 183.628906 201.066406 C 183.207031 200.746094 182.742188 200.515625 182.234375 200.367188 C 182.117188 200.328125 181.996094 200.289062 181.882812 200.242188 C 181.78125 200.203125 181.6875 200.152344 181.601562 200.085938 C 181.601562 200.03125 181.640625 199.953125 181.660156 199.898438 C 181.710938 199.734375 181.761719 199.570312 181.800781 199.40625 C 181.972656 198.527344 181.792969 197.726562 181.257812 197.003906 C 180.574219 196.074219 179.65625 195.535156 178.511719 195.382812 C 177.429688 195.261719 176.367188 195.339844 175.316406 195.613281 C 175.0625 194.460938 174.46875 193.523438 173.539062 192.796875 C 173.136719 192.507812 172.691406 192.296875 172.210938 192.167969 C 171.730469 192.039062 171.238281 191.996094 170.742188 192.039062 C 170.246094 192.085938 169.773438 192.214844 169.324219 192.429688 C 168.875 192.644531 168.476562 192.929688 168.128906 193.289062 C 166.984375 194.527344 167.140625 196.734375 167.839844 198.308594 L 164.941406 198.691406 C 164.871094 198.589844 164.808594 198.488281 164.753906 198.390625 Z M 170.472656 198.144531 C 170.433594 198.066406 170.386719 198 170.332031 197.933594 C 169.65625 197.171875 169.449219 195.328125 169.855469 194.890625 C 170.164062 194.589844 170.535156 194.421875 170.960938 194.382812 C 171.390625 194.34375 171.785156 194.445312 172.140625 194.683594 C 172.902344 195.246094 173.148438 196.410156 173.226562 197.285156 C 173.246094 197.476562 173.304688 197.648438 173.40625 197.808594 C 173.507812 197.96875 173.636719 198.09375 173.800781 198.191406 C 173.964844 198.289062 174.140625 198.34375 174.328125 198.355469 C 174.515625 198.367188 174.695312 198.335938 174.871094 198.261719 C 175.9375 197.785156 177.046875 197.605469 178.210938 197.722656 C 178.671875 197.792969 179.042969 198.011719 179.320312 198.382812 C 179.457031 198.539062 179.507812 198.71875 179.476562 198.921875 C 179.457031 199.007812 179.433594 199.089844 179.402344 199.175781 C 179.246094 199.570312 179.183594 199.980469 179.21875 200.40625 C 179.320312 201.289062 179.980469 202.027344 180.996094 202.4375 C 181.148438 202.5 181.300781 202.550781 181.457031 202.605469 C 181.6875 202.664062 181.898438 202.757812 182.101562 202.882812 C 182.222656 203.035156 182.226562 203.191406 182.109375 203.347656 C 181.992188 203.503906 181.839844 203.546875 181.660156 203.472656 C 181.054688 203.089844 180.410156 203 179.722656 203.199219 C 179.136719 203.347656 178.597656 203.59375 178.097656 203.9375 C 177.816406 203.140625 177.425781 202.402344 176.925781 201.722656 C 176.875 201.644531 176.816406 201.570312 176.75 201.503906 C 175.984375 200.523438 175.054688 199.738281 173.957031 199.15625 C 172.859375 198.570312 171.691406 198.234375 170.449219 198.144531 Z M 101.441406 215.878906 C 101.449219 215.695312 101.523438 215.546875 101.660156 215.429688 C 102.082031 215.113281 102.804688 215.046875 103.53125 215.011719 C 104.574219 214.9375 105.761719 214.796875 106.6875 214.003906 C 107.792969 213.054688 108.210938 211.472656 107.832031 209.550781 C 107.761719 209.199219 107.679688 208.847656 107.59375 208.492188 C 107.378906 207.796875 107.28125 207.082031 107.304688 206.351562 C 107.355469 205.921875 107.546875 205.570312 107.878906 205.289062 C 107.984375 205.1875 108.109375 205.144531 108.257812 205.164062 C 108.65625 205.320312 109.003906 205.554688 109.292969 205.867188 C 109.972656 206.472656 110.894531 207.300781 112.203125 207.082031 C 113.226562 206.910156 113.847656 206.164062 114.300781 205.621094 C 114.488281 205.347656 114.722656 205.125 115.003906 204.949219 C 115.417969 204.804688 116.292969 205.597656 116.578125 205.863281 C 117.640625 206.828125 119.304688 207.585938 120.769531 206.820312 C 121.046875 206.675781 121.238281 206.460938 121.34375 206.167969 C 121.445312 205.871094 121.4375 205.582031 121.3125 205.296875 C 120.890625 204.347656 120.460938 203.363281 120.480469 202.421875 C 120.480469 201.753906 120.863281 200.964844 121.433594 200.804688 C 121.90625 200.675781 122.554688 200.917969 123.238281 201.1875 C 123.460938 201.269531 123.679688 201.351562 123.894531 201.421875 C 124.277344 201.550781 126.332031 202.183594 127.65625 201.402344 C 128.183594 201.109375 128.507812 200.664062 128.628906 200.070312 C 128.890625 198.78125 128.550781 197.53125 128.203125 196.457031 L 128.144531 196.273438 C 127.839844 195.511719 127.679688 194.722656 127.667969 193.902344 C 127.710938 193.300781 128.050781 192.738281 128.453125 192.648438 C 128.859375 192.5625 129.46875 192.898438 130.132812 193.300781 C 130.980469 193.808594 131.941406 194.386719 133.128906 194.328125 C 134.25 194.273438 135.832031 193.621094 137.007812 190.820312 L 137.078125 190.648438 C 137.523438 189.578125 137.984375 188.472656 138.773438 188.15625 C 139.746094 187.777344 141.085938 188.648438 142.144531 189.457031 C 142.332031 189.601562 142.542969 189.679688 142.78125 189.699219 C 143.175781 191.539062 143.726562 193.332031 144.4375 195.078125 C 141.054688 196.359375 137.019531 198.554688 134.847656 202.144531 C 131.53125 207.617188 133.035156 213.917969 133.839844 216.386719 L 101.757812 216.386719 C 101.695312 216.191406 101.589844 216.019531 101.441406 215.878906 Z M 278.617188 224.710938 L 96.585938 224.710938 L 96.585938 218.738281 L 278.617188 218.738281 Z M 278.617188 224.710938 " fill-opacity="1" fill-rule="nonzero"/></g><path fill="#232323" d="M 129.894531 209.472656 C 129.753906 209.539062 129.632812 209.632812 129.53125 209.75 C 129.425781 209.867188 129.351562 210 129.300781 210.148438 C 129.25 210.296875 129.230469 210.449219 129.242188 210.605469 C 129.25 210.757812 129.292969 210.90625 129.359375 211.046875 C 129.402344 211.128906 129.410156 211.214844 129.382812 211.300781 C 129.351562 211.390625 129.300781 211.457031 129.21875 211.5 C 129.136719 211.542969 129.050781 211.554688 128.960938 211.53125 C 128.875 211.503906 128.804688 211.453125 128.757812 211.375 C 128.605469 211.117188 128.382812 210.949219 128.097656 210.859375 C 127.8125 210.769531 127.535156 210.789062 127.261719 210.910156 C 126.992188 211.03125 126.792969 211.230469 126.671875 211.5 C 126.546875 211.773438 126.53125 212.050781 126.621094 212.335938 C 126.609375 212.503906 126.523438 212.621094 126.367188 212.6875 C 126.023438 212.765625 125.726562 212.675781 125.480469 212.421875 C 125.132812 212.050781 124.9375 211.609375 124.902344 211.101562 C 124.882812 210.945312 124.835938 210.800781 124.757812 210.664062 C 124.679688 210.527344 124.582031 210.410156 124.457031 210.316406 C 124.335938 210.21875 124.199219 210.148438 124.046875 210.105469 C 123.898438 210.066406 123.742188 210.054688 123.589844 210.074219 C 123.433594 210.089844 123.289062 210.140625 123.152344 210.214844 C 123.015625 210.292969 122.898438 210.394531 122.800781 210.515625 C 122.707031 210.640625 122.636719 210.777344 122.59375 210.925781 C 122.554688 211.078125 122.542969 211.230469 122.5625 211.386719 C 122.664062 212.453125 123.097656 213.371094 123.859375 214.132812 C 124.503906 214.75 125.273438 215.066406 126.167969 215.074219 C 126.519531 215.074219 126.859375 215.015625 127.1875 214.890625 C 127.753906 214.683594 128.199219 214.328125 128.527344 213.824219 C 129.15625 213.957031 129.757812 213.871094 130.328125 213.570312 C 130.632812 213.398438 130.894531 213.179688 131.113281 212.910156 C 131.332031 212.640625 131.496094 212.339844 131.601562 212.011719 C 131.707031 211.679688 131.75 211.339844 131.726562 210.996094 C 131.703125 210.648438 131.621094 210.320312 131.472656 210.003906 C 131.402344 209.863281 131.308594 209.742188 131.191406 209.640625 C 131.074219 209.539062 130.941406 209.464844 130.792969 209.414062 C 130.644531 209.363281 130.492188 209.34375 130.339844 209.351562 C 130.183594 209.363281 130.035156 209.402344 129.894531 209.472656 Z M 129.894531 209.472656 " fill-opacity="1" fill-rule="nonzero"/><path fill="#ffffff" d="M 204.40625 172.460938 L 201.230469 172.460938 L 197.878906 181.46875 L 201.0625 181.46875 Z M 204.40625 172.460938 " fill-opacity="0.498" fill-rule="nonzero"/><path fill="#ffffff" d="M 211.390625 172.460938 L 205.445312 172.460938 L 202.082031 181.46875 L 207.5 181.46875 C 208.011719 181.46875 208.507812 181.371094 208.980469 181.175781 C 209.457031 180.980469 209.875 180.699219 210.238281 180.335938 C 210.601562 179.972656 210.882812 179.554688 211.078125 179.082031 C 211.277344 178.605469 211.375 178.113281 211.375 177.601562 Z M 211.390625 172.460938 " fill-opacity="0.498" fill-rule="nonzero"/><path fill="#ffffff" d="M 165.152344 172.460938 L 161.96875 172.460938 L 158.625 181.46875 L 161.804688 181.46875 Z M 165.152344 172.460938 " fill-opacity="0.498" fill-rule="nonzero"/><path fill="#ffffff" d="M 172.132812 172.460938 L 166.1875 172.460938 L 162.828125 181.46875 L 168.242188 181.46875 C 168.757812 181.46875 169.25 181.371094 169.726562 181.175781 C 170.199219 180.980469 170.621094 180.699219 170.984375 180.335938 C 171.347656 179.972656 171.628906 179.554688 171.824219 179.082031 C 172.019531 178.605469 172.117188 178.113281 172.117188 177.601562 Z M 172.132812 172.460938 " fill-opacity="0.498" fill-rule="nonzero"/><g fill="#232323" fill-opacity="1"><g transform="translate(73.423923, 264.848332)"><g><path d="M 15.425781 -5.925781 C 10.789062 -5.925781 8.777344 -9.917969 8.777344 -14.058594 C 8.777344 -17.972656 10.753906 -21.695312 15.085938 -21.695312 C 17.136719 -21.695312 19.035156 -20.820312 21.085938 -20.820312 C 21.847656 -20.820312 21.960938 -21.277344 21.960938 -21.921875 C 21.960938 -23.101562 22 -24.960938 21.164062 -25.875 C 20.214844 -26.9375 16.90625 -27.46875 15.503906 -27.546875 C 14.855469 -27.585938 14.210938 -27.585938 13.5625 -27.585938 C 5.964844 -27.585938 0.835938 -21.164062 0.835938 -13.867188 C 0.835938 -6.308594 6.117188 -0.113281 13.90625 -0.113281 C 15.652344 -0.113281 20.214844 -0.492188 21.46875 -1.746094 C 22.226562 -2.507812 22.304688 -4.597656 22.304688 -5.625 C 22.304688 -6.574219 21.808594 -6.800781 20.933594 -6.800781 C 19.035156 -6.800781 17.289062 -5.925781 15.425781 -5.925781 Z M 15.425781 -5.925781 "/></g></g></g><g fill="#232323" fill-opacity="1"><g transform="translate(96.066829, 264.848332)"><g><path d="M 8.246094 -27.050781 C 6.992188 -27.050781 5.625 -27.050781 4.597656 -26.292969 C 4.21875 -26.027344 3.953125 -25.648438 3.722656 -25.265625 C 2.546875 -23.101562 2.546875 -15.652344 2.546875 -12.957031 C 2.546875 -10.601562 2.507812 -2.050781 5.089844 -1.027344 C 5.925781 -0.683594 7.21875 -0.644531 8.132812 -0.644531 C 10.296875 -0.644531 10.410156 -2.128906 10.410156 -3.875 C 10.410156 -5.242188 10.183594 -6.574219 10.183594 -7.863281 C 10.183594 -10.410156 11.09375 -11.472656 13.640625 -11.472656 C 15.539062 -11.472656 17.25 -11.359375 17.25 -9.003906 C 17.25 -7.636719 17.058594 -6.269531 17.058594 -4.902344 C 17.058594 -3.417969 17.171875 -0.644531 19.1875 -0.644531 C 20.402344 -0.644531 22 -0.683594 23.023438 -1.445312 C 23.40625 -1.710938 23.671875 -2.050781 23.898438 -2.433594 C 24.960938 -4.40625 25.113281 -10.371094 25.113281 -12.726562 C 25.113281 -15.730469 25.265625 -24.164062 23.175781 -26.253906 C 22.53125 -26.9375 20.25 -27.050781 19.339844 -27.050781 C 17.554688 -27.050781 17.171875 -25.914062 17.171875 -24.316406 C 17.171875 -22.910156 17.476562 -21.542969 17.476562 -20.136719 C 17.476562 -17.628906 16.070312 -16.984375 13.832031 -16.984375 C 10.449219 -16.984375 10.335938 -18.007812 10.335938 -21.050781 C 10.335938 -22 10.488281 -22.949219 10.488281 -23.898438 C 10.488281 -25.53125 10.183594 -27.050781 8.246094 -27.050781 Z M 8.246094 -27.050781 "/></g></g></g><g fill="#232323" fill-opacity="1"><g transform="translate(121.369194, 264.848332)"><g><path d="M 6.535156 -0.722656 C 11.890625 -0.722656 6.421875 -5.625 12.917969 -5.625 C 20.820312 -5.625 15.085938 -0.683594 19.605469 -0.683594 C 21.46875 -0.683594 24.695312 -0.683594 24.695312 -3.304688 C 24.695312 -7.027344 19.339844 -22.988281 17.023438 -25.835938 C 15.957031 -27.128906 15.046875 -27.320312 13.449219 -27.320312 C 12.425781 -27.320312 11.664062 -27.320312 10.789062 -26.710938 C 7.902344 -24.773438 2.242188 -7.371094 2.242188 -3.648438 C 2.242188 -0.570312 4.101562 -0.722656 6.535156 -0.722656 Z M 13.144531 -11.09375 C 12.273438 -11.09375 11.472656 -11.285156 11.472656 -12.308594 C 11.472656 -13.144531 12.613281 -18.921875 13.375 -18.921875 C 14.285156 -18.921875 15.273438 -13.222656 15.273438 -12.347656 C 15.273438 -11.550781 14.703125 -11.09375 13.945312 -11.09375 Z M 13.144531 -11.09375 "/></g></g></g><g fill="#232323" fill-opacity="1"><g transform="translate(145.911717, 264.848332)"><g><path d="M 10.488281 -14.132812 C 10.488281 -14.78125 10.5625 -15.425781 10.601562 -16.070312 C 10.675781 -17.441406 10.753906 -18.808594 10.753906 -20.175781 C 10.753906 -22.152344 10.636719 -27.128906 7.828125 -27.128906 C 6.117188 -27.128906 4.636719 -26.9375 3.722656 -25.304688 C 2.582031 -23.253906 2.546875 -15.730469 2.546875 -13.144531 C 2.546875 -11.132812 2.582031 -9.082031 2.734375 -7.066406 C 2.851562 -5.699219 3.152344 -4.332031 3.953125 -3.191406 C 6.191406 0.0742188 12.613281 -0.457031 16.109375 -0.457031 C 17.742188 -0.457031 19.679688 -0.796875 20.859375 -2.050781 C 21.542969 -2.773438 21.695312 -3.835938 21.695312 -4.824219 C 21.695312 -6.003906 21.085938 -6.609375 19.910156 -6.609375 C 18.199219 -6.609375 16.488281 -6.535156 14.742188 -6.535156 C 13.945312 -6.535156 13.109375 -6.609375 12.386719 -6.992188 C 10.371094 -8.054688 10.488281 -12.195312 10.488281 -14.132812 Z M 10.488281 -14.132812 "/></g></g></g><g fill="#232323" fill-opacity="1"><g transform="translate(167.2249, 264.848332)"><g><path d="M 15.425781 -5.925781 C 10.789062 -5.925781 8.777344 -9.917969 8.777344 -14.058594 C 8.777344 -17.972656 10.753906 -21.695312 15.085938 -21.695312 C 17.136719 -21.695312 19.035156 -20.820312 21.085938 -20.820312 C 21.847656 -20.820312 21.960938 -21.277344 21.960938 -21.921875 C 21.960938 -23.101562 22 -24.960938 21.164062 -25.875 C 20.214844 -26.9375 16.90625 -27.46875 15.503906 -27.546875 C 14.855469 -27.585938 14.210938 -27.585938 13.5625 -27.585938 C 5.964844 -27.585938 0.835938 -21.164062 0.835938 -13.867188 C 0.835938 -6.308594 6.117188 -0.113281 13.90625 -0.113281 C 15.652344 -0.113281 20.214844 -0.492188 21.46875 -1.746094 C 22.226562 -2.507812 22.304688 -4.597656 22.304688 -5.625 C 22.304688 -6.574219 21.808594 -6.800781 20.933594 -6.800781 C 19.035156 -6.800781 17.289062 -5.925781 15.425781 -5.925781 Z M 15.425781 -5.925781 "/></g></g></g><g fill="#232323" fill-opacity="1"><g transform="translate(189.867801, 264.848332)"><g><path d="M 8.246094 -27.050781 C 6.992188 -27.050781 5.625 -27.050781 4.597656 -26.292969 C 4.21875 -26.027344 3.953125 -25.648438 3.722656 -25.265625 C 2.546875 -23.101562 2.546875 -15.652344 2.546875 -12.957031 C 2.546875 -10.601562 2.507812 -2.050781 5.089844 -1.027344 C 5.925781 -0.683594 7.21875 -0.644531 8.132812 -0.644531 C 10.296875 -0.644531 10.410156 -2.128906 10.410156 -3.875 C 10.410156 -5.242188 10.183594 -6.574219 10.183594 -7.863281 C 10.183594 -10.410156 11.09375 -11.472656 13.640625 -11.472656 C 15.539062 -11.472656 17.25 -11.359375 17.25 -9.003906 C 17.25 -7.636719 17.058594 -6.269531 17.058594 -4.902344 C 17.058594 -3.417969 17.171875 -0.644531 19.1875 -0.644531 C 20.402344 -0.644531 22 -0.683594 23.023438 -1.445312 C 23.40625 -1.710938 23.671875 -2.050781 23.898438 -2.433594 C 24.960938 -4.40625 25.113281 -10.371094 25.113281 -12.726562 C 25.113281 -15.730469 25.265625 -24.164062 23.175781 -26.253906 C 22.53125 -26.9375 20.25 -27.050781 19.339844 -27.050781 C 17.554688 -27.050781 17.171875 -25.914062 17.171875 -24.316406 C 17.171875 -22.910156 17.476562 -21.542969 17.476562 -20.136719 C 17.476562 -17.628906 16.070312 -16.984375 13.832031 -16.984375 C 10.449219 -16.984375 10.335938 -18.007812 10.335938 -21.050781 C 10.335938 -22 10.488281 -22.949219 10.488281 -23.898438 C 10.488281 -25.53125 10.183594 -27.050781 8.246094 -27.050781 Z M 8.246094 -27.050781 "/></g></g></g><g fill="#232323" fill-opacity="1"><g transform="translate(215.17016, 264.848332)"><g><path d="M 11.625 -17.933594 C 11.625 -19.796875 11.4375 -25.722656 9.726562 -26.75 C 8.851562 -27.28125 8.132812 -27.242188 7.144531 -27.242188 C 6.421875 -27.242188 5.773438 -27.128906 5.167969 -26.785156 C 3.078125 -25.609375 3 -18.503906 3 -16.300781 C 3 -14.667969 3.078125 -13.070312 3.078125 -11.4375 C 3.078125 -9.460938 3.152344 -1.976562 4.9375 -0.949219 C 5.738281 -0.492188 6.726562 -0.457031 7.636719 -0.457031 C 9.003906 -0.457031 10.105469 -1.0625 10.714844 -2.316406 C 11.511719 -3.953125 11.625 -9.382812 11.625 -11.324219 Z M 11.625 -17.933594 "/></g></g></g><g fill="#232323" fill-opacity="1"><g transform="translate(227.555161, 264.848332)"><g><path d="M 23.785156 -22.570312 C 23.785156 -22.988281 23.671875 -24.582031 23.558594 -24.925781 C 22.53125 -27.738281 13.867188 -27.28125 11.550781 -27.28125 C 9.574219 -27.28125 4.101562 -27.167969 2.699219 -25.796875 C 2.128906 -25.230469 1.976562 -23.441406 1.976562 -22.644531 C 1.976562 -19.035156 7.902344 -22.910156 8.664062 -18.84375 C 8.816406 -17.933594 8.851562 -16.984375 8.851562 -16.070312 C 8.851562 -14.132812 8.777344 -12.234375 8.777344 -10.296875 C 8.777344 -8.246094 8.738281 -1.9375 10.636719 -0.796875 C 11.285156 -0.417969 12.234375 -0.457031 12.996094 -0.457031 C 13.867188 -0.457031 14.933594 -0.417969 15.617188 -1.0625 C 16.832031 -2.242188 16.945312 -10.144531 16.945312 -12.042969 C 16.945312 -13.601562 16.871094 -15.121094 16.871094 -16.679688 C 16.871094 -18.960938 17.324219 -21.050781 20.0625 -21.050781 C 20.632812 -21.050781 21.164062 -20.972656 21.734375 -20.972656 C 22.835938 -20.972656 23.785156 -21.277344 23.785156 -22.570312 Z M 23.785156 -22.570312 "/></g></g></g><g fill="#232323" fill-opacity="1"><g transform="translate(250.957915, 264.848332)"><g><path d="M 10.183594 -3.800781 C 10.183594 -4.75 10.070312 -5.699219 10.070312 -6.609375 C 10.070312 -7.296875 10.070312 -9.839844 11.019531 -9.839844 C 17.363281 -9.839844 14.058594 -0.609375 18.960938 -0.609375 C 19.910156 -0.609375 23.824219 -0.796875 23.824219 -2.128906 C 23.824219 -3.800781 21.921875 -9.460938 20.820312 -10.675781 C 20.59375 -10.90625 19.53125 -11.890625 19.53125 -12.160156 C 19.53125 -12.347656 20.097656 -12.726562 20.25 -12.804688 C 21.542969 -13.640625 22.683594 -14.742188 23.480469 -16.070312 C 24.011719 -16.945312 24.203125 -17.894531 24.203125 -18.882812 C 24.203125 -24.582031 18.65625 -27.660156 13.527344 -27.660156 C 11.324219 -27.660156 6.191406 -27.621094 4.519531 -26.179688 C 3.683594 -25.457031 3.265625 -23.632812 3.078125 -22.570312 C 2.660156 -19.984375 2.546875 -17.324219 2.546875 -14.703125 C 2.546875 -12.195312 2.316406 -2.164062 5.015625 -1.0625 C 5.925781 -0.683594 6.953125 -0.644531 7.941406 -0.644531 C 10.070312 -0.644531 10.183594 -2.050781 10.183594 -3.800781 Z M 10.105469 -20.214844 C 10.105469 -21.238281 10.410156 -22.113281 11.589844 -22.113281 L 12.691406 -22.113281 C 14.515625 -22.113281 16.527344 -20.859375 16.527344 -18.84375 C 16.527344 -15.425781 13.90625 -15.121094 11.132812 -15.121094 C 10.183594 -15.121094 10.105469 -16.222656 10.105469 -16.945312 Z M 10.105469 -20.214844 "/></g></g></g><g fill="#232323" fill-opacity="1"><g transform="translate(274.740591, 264.848332)"><g><path d="M 6.535156 -0.722656 C 11.890625 -0.722656 6.421875 -5.625 12.917969 -5.625 C 20.820312 -5.625 15.085938 -0.683594 19.605469 -0.683594 C 21.46875 -0.683594 24.695312 -0.683594 24.695312 -3.304688 C 24.695312 -7.027344 19.339844 -22.988281 17.023438 -25.835938 C 15.957031 -27.128906 15.046875 -27.320312 13.449219 -27.320312 C 12.425781 -27.320312 11.664062 -27.320312 10.789062 -26.710938 C 7.902344 -24.773438 2.242188 -7.371094 2.242188 -3.648438 C 2.242188 -0.570312 4.101562 -0.722656 6.535156 -0.722656 Z M 13.144531 -11.09375 C 12.273438 -11.09375 11.472656 -11.285156 11.472656 -12.308594 C 11.472656 -13.144531 12.613281 -18.921875 13.375 -18.921875 C 14.285156 -18.921875 15.273438 -13.222656 15.273438 -12.347656 C 15.273438 -11.550781 14.703125 -11.09375 13.945312 -11.09375 Z M 13.144531 -11.09375 "/></g></g></g></svg>