<?xml version="1.0" standalone="no"?>
<!DOCTYPE svg PUBLIC "-//W3C//DTD SVG 20010904//EN"
 "http://www.w3.org/TR/2001/REC-SVG-20010904/DTD/svg10.dtd">
<svg version="1.0" xmlns="http://www.w3.org/2000/svg"
 width="512.000000pt" height="512.000000pt" viewBox="0 0 512.000000 512.000000"
 preserveAspectRatio="xMidYMid meet">

<g transform="translate(0.000000,512.000000) scale(0.100000,-0.100000)"
fill="#000000" stroke="none">
<path d="M1575 4524 c-440 -44 -782 -201 -1075 -494 -260 -261 -419 -573 -481
-950 -17 -98 -17 -393 0 -495 60 -376 220 -694 481 -955 255 -255 574 -418
929 -475 112 -19 330 -28 409 -18 l62 8 -35 53 -36 52 -112 0 c-788 1 -1451
578 -1567 1364 -15 102 -15 329 0 431 51 348 197 643 438 889 227 231 497 379
817 446 129 27 371 37 497 21 308 -41 601 -168 825 -358 l64 -54 52 17 c29 9
54 18 56 20 6 6 -111 110 -183 164 -222 166 -489 278 -763 319 -80 12 -315 21
-378 15z"/>
<path d="M1534 4165 c-92 -16 -183 -43 -211 -61 -14 -9 -23 -24 -23 -39 0 -35
177 -486 200 -510 18 -18 23 -18 77 -6 102 24 219 25 313 3 53 -13 92 -17 105
-12 17 6 48 68 129 257 129 295 129 282 0 325 -45 15 -121 34 -169 43 -105 18
-321 18 -421 0z"/>
<path d="M3265 3980 c-543 -54 -1007 -345 -1296 -810 -287 -463 -323 -1050
-99 -1573 153 -355 481 -687 837 -848 245 -111 450 -154 723 -153 338 2 614
81 894 257 689 431 972 1292 676 2060 -213 553 -747 976 -1332 1056 -110 15
-310 21 -403 11z m386 -125 c456 -65 850 -313 1103 -695 73 -109 115 -189 157
-298 249 -648 48 -1382 -496 -1813 -144 -114 -300 -197 -482 -258 -151 -50
-263 -70 -436 -78 -767 -33 -1443 495 -1608 1256 -33 150 -37 419 -11 577 100
583 504 1058 1059 1243 91 30 259 67 338 74 103 9 281 6 376 -8z"/>
<path d="M3252 3625 c-98 -18 -213 -53 -234 -72 -10 -9 -18 -25 -18 -36 0 -22
185 -484 202 -504 14 -17 60 -16 128 2 30 8 91 15 135 15 44 0 105 -7 135 -15
72 -19 104 -19 122 3 8 9 59 124 113 256 93 226 98 240 84 264 -42 76 -441
128 -667 87z"/>
<path d="M2527 3279 c-166 -146 -302 -374 -362 -606 -30 -113 -30 -115 -7
-142 15 -18 51 -25 277 -56 190 -27 265 -34 281 -26 17 7 29 31 48 93 30 98
79 184 145 253 55 58 65 78 50 107 -14 26 -273 365 -307 401 -14 15 -35 27
-46 27 -12 0 -47 -23 -79 -51z"/>
<path d="M4274 3292 c-20 -13 -334 -423 -334 -437 0 -15 27 -51 90 -121 49
-54 101 -152 120 -226 18 -67 35 -88 73 -88 53 0 490 59 514 70 12 5 25 21 29
34 11 45 -43 223 -106 352 -68 140 -146 248 -253 352 -73 70 -102 84 -133 64z"/>
<path d="M3380 2587 c-124 -35 -207 -136 -218 -263 -17 -212 188 -369 394
-300 71 23 127 75 165 151 28 58 31 71 27 137 -4 83 -29 141 -85 200 -66 68
-190 101 -283 75z"/>
<path d="M2402 2144 c-134 -18 -250 -39 -259 -46 -21 -17 -13 -99 22 -208 60
-188 154 -348 289 -488 88 -92 124 -116 155 -104 32 11 341 415 341 445 0 17
-18 46 -55 85 -72 78 -121 160 -146 247 -21 74 -47 106 -83 104 -11 -1 -130
-16 -264 -35z"/>
<path d="M4162 2138 c-5 -7 -17 -40 -27 -73 -28 -100 -70 -176 -139 -253 -40
-44 -66 -82 -66 -95 0 -19 246 -353 313 -424 34 -37 68 -30 132 29 64 58 155
168 202 243 84 134 158 322 169 433 6 56 5 61 -17 75 -14 8 -120 27 -259 46
-262 35 -293 37 -308 19z"/>
<path d="M3182 1583 c-28 -24 -214 -478 -210 -512 2 -18 13 -31 38 -43 79 -38
291 -78 419 -78 104 0 272 27 366 58 125 42 125 33 15 302 -110 268 -114 277
-139 285 -11 3 -48 -2 -83 -11 -81 -22 -232 -22 -314 0 -75 20 -68 20 -92 -1z"/>
<path d="M796 3809 c-153 -143 -284 -356 -341 -553 -32 -114 -33 -163 -2 -177
39 -18 520 -87 543 -78 16 5 29 29 48 87 33 99 82 180 152 254 40 41 54 64 54
85 0 20 -43 84 -158 238 -192 257 -181 251 -296 144z"/>
<path d="M1667 3129 c-204 -48 -292 -285 -171 -460 13 -19 37 -45 53 -57 l30
-22 11 58 c21 102 71 244 126 361 30 63 54 118 54 122 0 11 -53 10 -103 -2z"/>
<path d="M667 2700 c-279 -33 -276 -32 -257 -137 43 -233 175 -477 344 -642
76 -73 109 -87 139 -57 7 8 84 102 170 209 109 135 157 201 157 219 0 16 -20
48 -58 91 -68 77 -113 156 -137 242 -26 91 -38 105 -88 104 -23 -1 -145 -14
-270 -29z"/>
<path d="M1436 2118 c-28 -44 -206 -469 -206 -492 0 -35 27 -52 121 -80 98
-28 171 -42 277 -51 l73 -7 -27 68 c-60 156 -105 339 -119 492 -6 66 -10 74
-32 83 -41 15 -72 11 -87 -13z"/>
</g>
</svg>
